<?xml version="1.0" encoding="UTF-8" standalone="no"?><svg xmlns="http://www.w3.org/2000/svg" xmlns:xlink="http://www.w3.org/1999/xlink" contentScriptType="application/ecmascript" contentStyleType="text/css" height="1156px" preserveAspectRatio="none" style="width:444px;height:1156px;" version="1.1" viewBox="0 0 444 1156" width="444px" zoomAndPan="magnify"><defs><filter height="300%" id="f1kla2mz2dlbh6" width="300%" x="-1" y="-1"><feGaussianBlur result="blurOut" stdDeviation="4.0"/><feColorMatrix in="blurOut" result="blurOut2" type="matrix" values="0 0 0 0 0 0 0 0 0 0 0 0 0 0 0 0 0 0 .4 0"/><feOffset dx="8.0" dy="8.0" in="blurOut2" result="blurOut3"/><feBlend in="SourceGraphic" in2="blurOut3" mode="normal"/></filter></defs><g><!--MD5=[a49dd864a3ee26e9fa19420ec95892e7]
class PPU--><rect codeLine="4" fill="#FEFECE" filter="url(#f1kla2mz2dlbh6)" height="1114.7684" id="PPU" style="stroke:#A80036;stroke-width:3.0;" width="402" x="14" y="14"/><ellipse cx="183.5" cy="46" fill="#ADD1B2" rx="22" ry="22" style="stroke:#A80036;stroke-width:2.0;"/><path d="M182.4375,59.8438 Q178.9375,59.8438 176.6563,58.375 Q174.4063,56.875 173.2813,54.1875 Q172.1875,51.4688 172.1875,47.875 Q172.1875,43.8125 173.5,40.9063 Q174.8125,38 177.375,36.4375 Q179.9375,34.875 183.6875,34.875 Q185.4688,34.875 186.8125,35.25 Q188.1563,35.5938 189.5313,36.2813 L187.9063,40.3125 Q186.6563,39.6875 185.5625,39.4375 Q184.5,39.1875 183.5313,39.1875 Q181.1875,39.1875 179.7813,40.25 Q178.375,41.3125 177.7813,43.2188 Q177.1875,45.125 177.1875,47.6563 Q177.1875,51.6875 178.625,53.625 Q180.0625,55.5313 183.25,55.5313 Q184.4375,55.5313 185.6875,55.2188 Q186.9375,54.9063 188.5938,54.1563 L188.5938,58.5938 Q187.125,59.2188 185.5313,59.5313 Q183.9688,59.8438 182.4375,59.8438 Z " fill="#000000"/><text fill="#000000" font-family="sans-serif" font-size="24" lengthAdjust="spacing" textLength="46" x="224.5" y="55.3121">PPU</text><line style="stroke:#A80036;stroke-width:3.0;" x1="16" x2="414" y1="78" y2="78"/><ellipse cx="36" cy="100" fill="none" rx="6" ry="6" style="stroke:#038048;stroke-width:2.0;"/><text fill="#000000" font-family="sans-serif" font-size="22" lengthAdjust="spacing" textLength="118" x="54" y="109.5178">app_screen</text><ellipse cx="36" cy="129.9638" fill="none" rx="6" ry="6" style="stroke:#038048;stroke-width:2.0;"/><text fill="#000000" font-family="sans-serif" font-size="22" lengthAdjust="spacing" textLength="182" x="54" y="139.4816">force_nmi_in_cpu</text><rect fill="none" height="12" style="stroke:#C82930;stroke-width:2.0;" width="12" x="30" y="153.9276"/><text fill="#000000" font-family="sans-serif" font-size="22" lengthAdjust="spacing" textLength="136" x="54" y="169.4454">memory_bus</text><rect fill="none" height="12" style="stroke:#C82930;stroke-width:2.0;" width="12" x="30" y="183.8913"/><text fill="#000000" font-family="sans-serif" font-size="22" lengthAdjust="spacing" textLength="94" x="54" y="199.4092">renderer</text><rect fill="none" height="12" style="stroke:#C82930;stroke-width:2.0;" width="12" x="30" y="213.8551"/><text fill="#000000" font-family="sans-serif" font-size="22" lengthAdjust="spacing" textLength="156" x="54" y="229.3729">ppu_controller</text><rect fill="none" height="12" style="stroke:#C82930;stroke-width:2.0;" width="12" x="30" y="243.8189"/><text fill="#000000" font-family="sans-serif" font-size="22" lengthAdjust="spacing" textLength="106" x="54" y="259.3367">ppu_mask</text><rect fill="none" height="12" style="stroke:#C82930;stroke-width:2.0;" width="12" x="30" y="273.7827"/><text fill="#000000" font-family="sans-serif" font-size="22" lengthAdjust="spacing" textLength="114" x="54" y="289.3005">ppu_status</text><rect fill="none" height="12" style="stroke:#C82930;stroke-width:2.0;" width="12" x="30" y="303.7464"/><text fill="#000000" font-family="sans-serif" font-size="22" lengthAdjust="spacing" textLength="138" x="54" y="319.2643">oam_address</text><rect fill="none" height="12" style="stroke:#C82930;stroke-width:2.0;" width="12" x="30" y="333.7102"/><text fill="#000000" font-family="sans-serif" font-size="22" lengthAdjust="spacing" textLength="102" x="54" y="349.228">oam_data</text><rect fill="none" height="12" style="stroke:#C82930;stroke-width:2.0;" width="12" x="30" y="363.674"/><text fill="#000000" font-family="sans-serif" font-size="22" lengthAdjust="spacing" textLength="108" x="54" y="379.1918">ppu_scroll</text><rect fill="none" height="12" style="stroke:#C82930;stroke-width:2.0;" width="12" x="30" y="393.6378"/><text fill="#000000" font-family="sans-serif" font-size="22" lengthAdjust="spacing" textLength="134" x="54" y="409.1556">ppu_address</text><rect fill="none" height="12" style="stroke:#C82930;stroke-width:2.0;" width="12" x="30" y="423.6015"/><text fill="#000000" font-family="sans-serif" font-size="22" lengthAdjust="spacing" textLength="98" x="54" y="439.1194">ppu_data</text><rect fill="none" height="12" style="stroke:#C82930;stroke-width:2.0;" width="12" x="30" y="453.5653"/><text fill="#000000" font-family="sans-serif" font-size="22" lengthAdjust="spacing" textLength="122" x="54" y="469.0831">oam_mdma</text><rect fill="none" height="12" style="stroke:#C82930;stroke-width:2.0;" width="12" x="30" y="483.5291"/><text fill="#000000" font-family="sans-serif" font-size="22" lengthAdjust="spacing" textLength="62" x="54" y="499.0469">fine_x</text><rect fill="none" height="12" style="stroke:#C82930;stroke-width:2.0;" width="12" x="30" y="513.4929"/><text fill="#000000" font-family="sans-serif" font-size="22" lengthAdjust="spacing" textLength="290" x="54" y="529.0107">second_address_write_latch</text><rect fill="none" height="12" style="stroke:#C82930;stroke-width:2.0;" width="12" x="30" y="543.4566"/><text fill="#000000" font-family="sans-serif" font-size="22" lengthAdjust="spacing" textLength="232" x="54" y="558.9745">ppu_data_read_buffer</text><rect fill="none" height="12" style="stroke:#C82930;stroke-width:2.0;" width="12" x="30" y="573.4204"/><text fill="#000000" font-family="sans-serif" font-size="22" lengthAdjust="spacing" textLength="138" x="54" y="588.9382">current_cycle</text><rect fill="none" height="12" style="stroke:#C82930;stroke-width:2.0;" width="12" x="30" y="603.3842"/><text fill="#000000" font-family="sans-serif" font-size="22" lengthAdjust="spacing" textLength="172" x="54" y="618.902">current_scanline</text><line style="stroke:#A80036;stroke-width:3.0;" x1="16" x2="414" y1="633.348" y2="633.348"/><ellipse cx="36" cy="655.348" fill="#84BE84" rx="6" ry="6" style="stroke:#038048;stroke-width:2.0;"/><text fill="#000000" font-family="sans-serif" font-size="22" lengthAdjust="spacing" textLength="304" x="54" y="664.8658">connect_bus_with_cartridge()</text><ellipse cx="36" cy="685.3117" fill="#84BE84" rx="6" ry="6" style="stroke:#038048;stroke-width:2.0;"/><text fill="#000000" font-family="sans-serif" font-size="22" lengthAdjust="spacing" textLength="160" x="54" y="694.8296">perform_cycle()</text><ellipse cx="36" cy="715.2755" fill="#84BE84" rx="6" ry="6" style="stroke:#038048;stroke-width:2.0;"/><text fill="#000000" font-family="sans-serif" font-size="22" lengthAdjust="spacing" textLength="230" x="54" y="724.7933">render_whole_frame()</text><ellipse cx="36" cy="745.2393" fill="#84BE84" rx="6" ry="6" style="stroke:#038048;stroke-width:2.0;"/><text fill="#000000" font-family="sans-serif" font-size="22" lengthAdjust="spacing" textLength="350" x="54" y="754.7571">handle_register_write_from_cpu()</text><ellipse cx="36" cy="775.2031" fill="#84BE84" rx="6" ry="6" style="stroke:#038048;stroke-width:2.0;"/><text fill="#000000" font-family="sans-serif" font-size="22" lengthAdjust="spacing" textLength="344" x="54" y="784.7209">handle_register_read_from_cpu()</text><ellipse cx="36" cy="805.1668" fill="#84BE84" rx="6" ry="6" style="stroke:#038048;stroke-width:2.0;"/><text fill="#000000" font-family="sans-serif" font-size="22" lengthAdjust="spacing" textLength="176" x="54" y="814.6847">log_debug_info()</text><rect fill="#F24D5C" height="12" style="stroke:#C82930;stroke-width:2.0;" width="12" x="30" y="829.1306"/><text fill="#000000" font-family="sans-serif" font-size="22" lengthAdjust="spacing" textLength="146" x="54" y="844.6484">write_to_bus()</text><rect fill="#F24D5C" height="12" style="stroke:#C82930;stroke-width:2.0;" width="12" x="30" y="859.0944"/><text fill="#000000" font-family="sans-serif" font-size="22" lengthAdjust="spacing" textLength="170" x="54" y="874.6122">read_from_bus()</text><rect fill="#F24D5C" height="12" style="stroke:#C82930;stroke-width:2.0;" width="12" x="30" y="889.0582"/><text fill="#000000" font-family="sans-serif" font-size="22" lengthAdjust="spacing" textLength="274" x="54" y="904.576">increment_vram_address()</text><rect fill="#F24D5C" height="12" style="stroke:#C82930;stroke-width:2.0;" width="12" x="30" y="919.0219"/><text fill="#000000" font-family="sans-serif" font-size="22" lengthAdjust="spacing" textLength="322" x="54" y="934.5398">process_ppu_controller_write()</text><rect fill="#F24D5C" height="12" style="stroke:#C82930;stroke-width:2.0;" width="12" x="30" y="948.9857"/><text fill="#000000" font-family="sans-serif" font-size="22" lengthAdjust="spacing" textLength="272" x="54" y="964.5035">process_ppu_mask_write()</text><rect fill="#F24D5C" height="12" style="stroke:#C82930;stroke-width:2.0;" width="12" x="30" y="978.9495"/><text fill="#000000" font-family="sans-serif" font-size="22" lengthAdjust="spacing" textLength="274" x="54" y="994.4673">process_ppu_scroll_write()</text><rect fill="#F24D5C" height="12" style="stroke:#C82930;stroke-width:2.0;" width="12" x="30" y="1008.9133"/><text fill="#000000" font-family="sans-serif" font-size="22" lengthAdjust="spacing" textLength="300" x="54" y="1024.4311">process_ppu_address_write()</text><rect fill="#F24D5C" height="12" style="stroke:#C82930;stroke-width:2.0;" width="12" x="30" y="1038.877"/><text fill="#000000" font-family="sans-serif" font-size="22" lengthAdjust="spacing" textLength="264" x="54" y="1054.3949">process_ppu_data_write()</text><rect fill="#F24D5C" height="12" style="stroke:#C82930;stroke-width:2.0;" width="12" x="30" y="1068.8408"/><text fill="#000000" font-family="sans-serif" font-size="22" lengthAdjust="spacing" textLength="274" x="54" y="1084.3586">process_ppu_status_read()</text><rect fill="#F24D5C" height="12" style="stroke:#C82930;stroke-width:2.0;" width="12" x="30" y="1098.8046"/><text fill="#000000" font-family="sans-serif" font-size="22" lengthAdjust="spacing" textLength="258" x="54" y="1114.3224">process_ppu_data_read()</text><!--MD5=[f1927caa81f8efa31de80815effc8459]
@startuml ppu
scale 2
hide empty members

class PPU {
+ app_screen
+ force_nmi_in_cpu
- memory_bus
- renderer
- ppu_controller
- ppu_mask
- ppu_status
- oam_address
- oam_data
- ppu_scroll
- ppu_address
- ppu_data
- oam_mdma
- fine_x
- second_address_write_latch
- ppu_data_read_buffer
- current_cycle
- current_scanline

+ connect_bus_with_cartridge()
+ perform_cycle()
+ render_whole_frame()
+ handle_register_write_from_cpu()
+ handle_register_read_from_cpu()
+ log_debug_info()
- write_to_bus()
- read_from_bus()
- increment_vram_address()
- process_ppu_controller_write()
- process_ppu_mask_write()
- process_ppu_scroll_write()
- process_ppu_address_write()
- process_ppu_data_write()
- process_ppu_status_read()
- process_ppu_data_read()
}
@enduml

PlantUML version 1.2021.00(Sun Jan 10 11:25:05 CET 2021)
(MIT source distribution)
Java Runtime: OpenJDK Runtime Environment
JVM: OpenJDK 64-Bit Server VM
Default Encoding: UTF-8
Language: en
Country: US
--></g></svg>