<?xml version="1.0" encoding="UTF-8" standalone="no"?><svg xmlns="http://www.w3.org/2000/svg" xmlns:xlink="http://www.w3.org/1999/xlink" contentScriptType="application/ecmascript" contentStyleType="text/css" height="658px" preserveAspectRatio="none" style="width:1086px;height:658px;" version="1.1" viewBox="0 0 1086 658" width="1086px" zoomAndPan="magnify"><defs><filter height="300%" id="f7jrn18wm2qdf" width="300%" x="-1" y="-1"><feGaussianBlur result="blurOut" stdDeviation="4.0"/><feColorMatrix in="blurOut" result="blurOut2" type="matrix" values="0 0 0 0 0 0 0 0 0 0 0 0 0 0 0 0 0 0 .4 0"/><feOffset dx="8.0" dy="8.0" in="blurOut2" result="blurOut3"/><feBlend in="SourceGraphic" in2="blurOut3" mode="normal"/></filter></defs><g><!--MD5=[f8e092794d52bf9a252466252ae7bd1c]
class System--><rect codeLine="4" fill="#FEFECE" filter="url(#f7jrn18wm2qdf)" height="64" id="System" style="stroke:#A80036;stroke-width:3.0;" width="146" x="243" y="14"/><ellipse cx="273" cy="46" fill="#ADD1B2" rx="22" ry="22" style="stroke:#A80036;stroke-width:2.0;"/><path d="M271.9375,59.8438 Q268.4375,59.8438 266.1563,58.375 Q263.9063,56.875 262.7813,54.1875 Q261.6875,51.4688 261.6875,47.875 Q261.6875,43.8125 263,40.9063 Q264.3125,38 266.875,36.4375 Q269.4375,34.875 273.1875,34.875 Q274.9688,34.875 276.3125,35.25 Q277.6563,35.5938 279.0313,36.2813 L277.4063,40.3125 Q276.1563,39.6875 275.0625,39.4375 Q274,39.1875 273.0313,39.1875 Q270.6875,39.1875 269.2813,40.25 Q267.875,41.3125 267.2813,43.2188 Q266.6875,45.125 266.6875,47.6563 Q266.6875,51.6875 268.125,53.625 Q269.5625,55.5313 272.75,55.5313 Q273.9375,55.5313 275.1875,55.2188 Q276.4375,54.9063 278.0938,54.1563 L278.0938,58.5938 Q276.625,59.2188 275.0313,59.5313 Q273.4688,59.8438 271.9375,59.8438 Z " fill="#000000"/><text fill="#000000" font-family="sans-serif" font-size="24" lengthAdjust="spacing" textLength="82" x="301" y="55.3121">System</text><!--MD5=[1d7c5a491d68c757d98f4015f46ff360]
class CPU--><rect codeLine="6" fill="#FEFECE" filter="url(#f7jrn18wm2qdf)" height="64" id="CPU" style="stroke:#A80036;stroke-width:3.0;" width="112" x="50" y="382"/><ellipse cx="80" cy="414" fill="#ADD1B2" rx="22" ry="22" style="stroke:#A80036;stroke-width:2.0;"/><path d="M78.9375,427.8438 Q75.4375,427.8438 73.1563,426.375 Q70.9063,424.875 69.7813,422.1875 Q68.6875,419.4688 68.6875,415.875 Q68.6875,411.8125 70,408.9063 Q71.3125,406 73.875,404.4375 Q76.4375,402.875 80.1875,402.875 Q81.9688,402.875 83.3125,403.25 Q84.6563,403.5938 86.0313,404.2813 L84.4063,408.3125 Q83.1563,407.6875 82.0625,407.4375 Q81,407.1875 80.0313,407.1875 Q77.6875,407.1875 76.2813,408.25 Q74.875,409.3125 74.2813,411.2188 Q73.6875,413.125 73.6875,415.6563 Q73.6875,419.6875 75.125,421.625 Q76.5625,423.5313 79.75,423.5313 Q80.9375,423.5313 82.1875,423.2188 Q83.4375,422.9063 85.0938,422.1563 L85.0938,426.5938 Q83.625,427.2188 82.0313,427.5313 Q80.4688,427.8438 78.9375,427.8438 Z " fill="#000000"/><text fill="#000000" font-family="sans-serif" font-size="24" lengthAdjust="spacing" textLength="48" x="108" y="423.3121">CPU</text><!--MD5=[a333ef3886df6cf37a2df872d989ef91]
class CPUBus--><rect codeLine="7" fill="#FEFECE" filter="url(#f7jrn18wm2qdf)" height="64" id="CPUBus" style="stroke:#A80036;stroke-width:3.0;" width="154" x="459" y="566"/><ellipse cx="489" cy="598" fill="#ADD1B2" rx="22" ry="22" style="stroke:#A80036;stroke-width:2.0;"/><path d="M487.9375,611.8438 Q484.4375,611.8438 482.1563,610.375 Q479.9063,608.875 478.7813,606.1875 Q477.6875,603.4688 477.6875,599.875 Q477.6875,595.8125 479,592.9063 Q480.3125,590 482.875,588.4375 Q485.4375,586.875 489.1875,586.875 Q490.9688,586.875 492.3125,587.25 Q493.6563,587.5938 495.0313,588.2813 L493.4063,592.3125 Q492.1563,591.6875 491.0625,591.4375 Q490,591.1875 489.0313,591.1875 Q486.6875,591.1875 485.2813,592.25 Q483.875,593.3125 483.2813,595.2188 Q482.6875,597.125 482.6875,599.6563 Q482.6875,603.6875 484.125,605.625 Q485.5625,607.5313 488.75,607.5313 Q489.9375,607.5313 491.1875,607.2188 Q492.4375,606.9063 494.0938,606.1563 L494.0938,610.5938 Q492.625,611.2188 491.0313,611.5313 Q489.4688,611.8438 487.9375,611.8438 Z " fill="#000000"/><text fill="#000000" font-family="sans-serif" font-size="24" lengthAdjust="spacing" textLength="90" x="517" y="607.3121">CPUBus</text><!--MD5=[818ce9cd1eb68477d70117a0a20ac581]
class Instruction--><rect codeLine="8" fill="#FEFECE" filter="url(#f7jrn18wm2qdf)" height="64" id="Instruction" style="stroke:#A80036;stroke-width:3.0;" width="184" x="14" y="566"/><ellipse cx="44" cy="598" fill="#ADD1B2" rx="22" ry="22" style="stroke:#A80036;stroke-width:2.0;"/><path d="M42.9375,611.8438 Q39.4375,611.8438 37.1563,610.375 Q34.9063,608.875 33.7813,606.1875 Q32.6875,603.4688 32.6875,599.875 Q32.6875,595.8125 34,592.9063 Q35.3125,590 37.875,588.4375 Q40.4375,586.875 44.1875,586.875 Q45.9688,586.875 47.3125,587.25 Q48.6563,587.5938 50.0313,588.2813 L48.4063,592.3125 Q47.1563,591.6875 46.0625,591.4375 Q45,591.1875 44.0313,591.1875 Q41.6875,591.1875 40.2813,592.25 Q38.875,593.3125 38.2813,595.2188 Q37.6875,597.125 37.6875,599.6563 Q37.6875,603.6875 39.125,605.625 Q40.5625,607.5313 43.75,607.5313 Q44.9375,607.5313 46.1875,607.2188 Q47.4375,606.9063 49.0938,606.1563 L49.0938,610.5938 Q47.625,611.2188 46.0313,611.5313 Q44.4688,611.8438 42.9375,611.8438 Z " fill="#000000"/><text fill="#000000" font-family="sans-serif" font-size="24" lengthAdjust="spacing" textLength="120" x="72" y="607.3121">Instruction</text><!--MD5=[a49dd864a3ee26e9fa19420ec95892e7]
class PPU--><rect codeLine="10" fill="#FEFECE" filter="url(#f7jrn18wm2qdf)" height="64" id="PPU" style="stroke:#A80036;stroke-width:3.0;" width="110" x="261" y="198"/><ellipse cx="291" cy="230" fill="#ADD1B2" rx="22" ry="22" style="stroke:#A80036;stroke-width:2.0;"/><path d="M289.9375,243.8438 Q286.4375,243.8438 284.1563,242.375 Q281.9063,240.875 280.7813,238.1875 Q279.6875,235.4688 279.6875,231.875 Q279.6875,227.8125 281,224.9063 Q282.3125,222 284.875,220.4375 Q287.4375,218.875 291.1875,218.875 Q292.9688,218.875 294.3125,219.25 Q295.6563,219.5938 297.0313,220.2813 L295.4063,224.3125 Q294.1563,223.6875 293.0625,223.4375 Q292,223.1875 291.0313,223.1875 Q288.6875,223.1875 287.2813,224.25 Q285.875,225.3125 285.2813,227.2188 Q284.6875,229.125 284.6875,231.6563 Q284.6875,235.6875 286.125,237.625 Q287.5625,239.5313 290.75,239.5313 Q291.9375,239.5313 293.1875,239.2188 Q294.4375,238.9063 296.0938,238.1563 L296.0938,242.5938 Q294.625,243.2188 293.0313,243.5313 Q291.4688,243.8438 289.9375,243.8438 Z " fill="#000000"/><text fill="#000000" font-family="sans-serif" font-size="24" lengthAdjust="spacing" textLength="46" x="319" y="239.3121">PPU</text><!--MD5=[39059a76a0921463cceac64ac57893ba]
class PPUBus--><rect codeLine="11" fill="#FEFECE" filter="url(#f7jrn18wm2qdf)" height="64" id="PPUBus" style="stroke:#A80036;stroke-width:3.0;" width="152" x="470" y="382"/><ellipse cx="500" cy="414" fill="#ADD1B2" rx="22" ry="22" style="stroke:#A80036;stroke-width:2.0;"/><path d="M498.9375,427.8438 Q495.4375,427.8438 493.1563,426.375 Q490.9063,424.875 489.7813,422.1875 Q488.6875,419.4688 488.6875,415.875 Q488.6875,411.8125 490,408.9063 Q491.3125,406 493.875,404.4375 Q496.4375,402.875 500.1875,402.875 Q501.9688,402.875 503.3125,403.25 Q504.6563,403.5938 506.0313,404.2813 L504.4063,408.3125 Q503.1563,407.6875 502.0625,407.4375 Q501,407.1875 500.0313,407.1875 Q497.6875,407.1875 496.2813,408.25 Q494.875,409.3125 494.2813,411.2188 Q493.6875,413.125 493.6875,415.6563 Q493.6875,419.6875 495.125,421.625 Q496.5625,423.5313 499.75,423.5313 Q500.9375,423.5313 502.1875,423.2188 Q503.4375,422.9063 505.0938,422.1563 L505.0938,426.5938 Q503.625,427.2188 502.0313,427.5313 Q500.4688,427.8438 498.9375,427.8438 Z " fill="#000000"/><text fill="#000000" font-family="sans-serif" font-size="24" lengthAdjust="spacing" textLength="88" x="528" y="423.3121">PPUBus</text><!--MD5=[4945c737fad898a5ce312252f730d528]
class Renderer--><rect codeLine="12" fill="#FEFECE" filter="url(#f7jrn18wm2qdf)" height="64" id="Renderer" style="stroke:#A80036;stroke-width:3.0;" width="168" x="232" y="382"/><ellipse cx="262" cy="414" fill="#ADD1B2" rx="22" ry="22" style="stroke:#A80036;stroke-width:2.0;"/><path d="M260.9375,427.8438 Q257.4375,427.8438 255.1563,426.375 Q252.9063,424.875 251.7813,422.1875 Q250.6875,419.4688 250.6875,415.875 Q250.6875,411.8125 252,408.9063 Q253.3125,406 255.875,404.4375 Q258.4375,402.875 262.1875,402.875 Q263.9688,402.875 265.3125,403.25 Q266.6563,403.5938 268.0313,404.2813 L266.4063,408.3125 Q265.1563,407.6875 264.0625,407.4375 Q263,407.1875 262.0313,407.1875 Q259.6875,407.1875 258.2813,408.25 Q256.875,409.3125 256.2813,411.2188 Q255.6875,413.125 255.6875,415.6563 Q255.6875,419.6875 257.125,421.625 Q258.5625,423.5313 261.75,423.5313 Q262.9375,423.5313 264.1875,423.2188 Q265.4375,422.9063 267.0938,422.1563 L267.0938,426.5938 Q265.625,427.2188 264.0313,427.5313 Q262.4688,427.8438 260.9375,427.8438 Z " fill="#000000"/><text fill="#000000" font-family="sans-serif" font-size="24" lengthAdjust="spacing" textLength="104" x="290" y="423.3121">Renderer</text><!--MD5=[de894fcfecf00f9dbd2de788d1f11225]
class Cartridge--><rect codeLine="14" fill="#FEFECE" filter="url(#f7jrn18wm2qdf)" height="64" id="Cartridge" style="stroke:#A80036;stroke-width:3.0;" width="170" x="551" y="198"/><ellipse cx="581" cy="230" fill="#ADD1B2" rx="22" ry="22" style="stroke:#A80036;stroke-width:2.0;"/><path d="M579.9375,243.8438 Q576.4375,243.8438 574.1563,242.375 Q571.9063,240.875 570.7813,238.1875 Q569.6875,235.4688 569.6875,231.875 Q569.6875,227.8125 571,224.9063 Q572.3125,222 574.875,220.4375 Q577.4375,218.875 581.1875,218.875 Q582.9688,218.875 584.3125,219.25 Q585.6563,219.5938 587.0313,220.2813 L585.4063,224.3125 Q584.1563,223.6875 583.0625,223.4375 Q582,223.1875 581.0313,223.1875 Q578.6875,223.1875 577.2813,224.25 Q575.875,225.3125 575.2813,227.2188 Q574.6875,229.125 574.6875,231.6563 Q574.6875,235.6875 576.125,237.625 Q577.5625,239.5313 580.75,239.5313 Q581.9375,239.5313 583.1875,239.2188 Q584.4375,238.9063 586.0938,238.1563 L586.0938,242.5938 Q584.625,243.2188 583.0313,243.5313 Q581.4688,243.8438 579.9375,243.8438 Z " fill="#000000"/><text fill="#000000" font-family="sans-serif" font-size="24" lengthAdjust="spacing" textLength="106" x="609" y="239.3121">Cartridge</text><!--MD5=[17e1c1a0a8219605fa597c0a44bc2e80]
class MapperNROM--><rect codeLine="15" fill="#FEFECE" filter="url(#f7jrn18wm2qdf)" height="64" id="MapperNROM" style="stroke:#A80036;stroke-width:3.0;" width="224" x="834" y="382"/><ellipse cx="864" cy="414" fill="#ADD1B2" rx="22" ry="22" style="stroke:#A80036;stroke-width:2.0;"/><path d="M862.9375,427.8438 Q859.4375,427.8438 857.1563,426.375 Q854.9063,424.875 853.7813,422.1875 Q852.6875,419.4688 852.6875,415.875 Q852.6875,411.8125 854,408.9063 Q855.3125,406 857.875,404.4375 Q860.4375,402.875 864.1875,402.875 Q865.9688,402.875 867.3125,403.25 Q868.6563,403.5938 870.0313,404.2813 L868.4063,408.3125 Q867.1563,407.6875 866.0625,407.4375 Q865,407.1875 864.0313,407.1875 Q861.6875,407.1875 860.2813,408.25 Q858.875,409.3125 858.2813,411.2188 Q857.6875,413.125 857.6875,415.6563 Q857.6875,419.6875 859.125,421.625 Q860.5625,423.5313 863.75,423.5313 Q864.9375,423.5313 866.1875,423.2188 Q867.4375,422.9063 869.0938,422.1563 L869.0938,426.5938 Q867.625,427.2188 866.0313,427.5313 Q864.4688,427.8438 862.9375,427.8438 Z " fill="#000000"/><text fill="#000000" font-family="sans-serif" font-size="24" lengthAdjust="spacing" textLength="160" x="892" y="423.3121">MapperNROM</text><!--MD5=[dc934a07216ef01441cebebc83705d59]
reverse link System to CPU--><path codeLine="18" d="M282.16,103.52 C265.12,131.7 244.24,166.54 226,198 C188.38,262.84 145.76,339.68 122.8,381.36 " fill="none" id="System-backto-CPU" style="stroke:#A80036;stroke-width:2.0;"/><polygon fill="#A80036" points="295.54,81.46,282.476,87.57,283.0914,101.9791,296.1554,95.8691,295.54,81.46" style="stroke:#A80036;stroke-width:2.0;"/><!--MD5=[cf83f15cf4c9c78c8f3e01b325a89f4f]
reverse link System to PPU--><path codeLine="19" d="M316,107.34 C316,137.42 316,172.7 316,197.32 " fill="none" id="System-backto-PPU" style="stroke:#A80036;stroke-width:2.0;"/><polygon fill="#A80036" points="316,81.56,308,93.56,316,105.56,324,93.56,316,81.56" style="stroke:#A80036;stroke-width:2.0;"/><!--MD5=[2353663247ee01f1e42bce075d923c44]
reverse link System to Cartridge--><path codeLine="20" d="M396.06,93.04 C453.82,125.52 530.26,168.52 581.18,197.16 " fill="none" id="System-backto-Cartridge" style="stroke:#A80036;stroke-width:2.0;"/><polygon fill="#A80036" points="373.64,80.42,380.1653,93.2816,394.5472,92.205,388.022,79.3434,373.64,80.42" style="stroke:#A80036;stroke-width:2.0;"/><!--MD5=[e12e6d96017279ee018bea5f29514bb5]
reverse link CPU to CPUBus--><path codeLine="22" d="M188.48,450.52 C267.74,483.7 386.38,533.38 462.5,565.22 " fill="none" id="CPU-backto-CPUBus" style="stroke:#A80036;stroke-width:2.0;"/><polygon fill="#A80036" points="165,440.7,172.9878,452.7081,187.1445,449.9532,179.1566,437.9451,165,440.7" style="stroke:#A80036;stroke-width:2.0;"/><!--MD5=[0f9976128e9ee7d497bb336edef72f8c]
reverse link CPU to Instruction--><path codeLine="23" d="M106,475.34 C106,505.42 106,540.7 106,565.32 " fill="none" id="CPU-backto-Instruction" style="stroke:#A80036;stroke-width:2.0;"/><polygon fill="#A80036" points="106,449.56,98,461.56,106,473.56,114,461.56,106,449.56" style="stroke:#A80036;stroke-width:2.0;"/><!--MD5=[1d24fc50f2f6e8b5fab47bcaa4cecbd6]
reverse link PPU to PPUBus--><path codeLine="25" d="M378.16,280.64 C419.2,312.76 471.72,353.86 506.98,381.46 " fill="none" id="PPU-backto-PPUBus" style="stroke:#A80036;stroke-width:2.0;"/><polygon fill="#A80036" points="357.92,264.8,362.4411,278.4952,376.8218,279.5893,372.3006,265.894,357.92,264.8" style="stroke:#A80036;stroke-width:2.0;"/><!--MD5=[ce87d9d10e4ec33170be5be241fc9835]
reverse link PPU to Renderer--><path codeLine="26" d="M316,291.34 C316,321.42 316,356.7 316,381.32 " fill="none" id="PPU-backto-Renderer" style="stroke:#A80036;stroke-width:2.0;"/><polygon fill="#A80036" points="316,265.56,308,277.56,316,289.56,324,277.56,316,265.56" style="stroke:#A80036;stroke-width:2.0;"/><!--MD5=[f9a8fb8e413a9172bcbd7e6822dbd824]
reverse link PPU to CPU--><path codeLine="27" d="M270.94,270.62 C232.32,303.72 177.46,350.74 141.8,381.32 " fill="none" id="PPU-backto-CPU" style="stroke:#A80036;stroke-width:2.0;"/><polygon fill="#A80036" points="278.08,264.5,259.2071,270.1402,270.4874,271.0079,269.6197,282.2883,278.08,264.5" style="stroke:#A80036;stroke-width:2.0;"/><!--MD5=[618e77a4f0811745c464e3d98fc8fbd9]
reverse link Cartridge to MapperNROM--><path codeLine="29" d="M714.32,277.48 C770.18,309.9 843.78,352.64 892.88,381.16 " fill="none" id="Cartridge-backto-MapperNROM" style="stroke:#A80036;stroke-width:2.0;"/><polygon fill="#A80036" points="691.9,264.46,698.26,277.4041,712.6546,276.5119,706.2946,263.5678,691.9,264.46" style="stroke:#A80036;stroke-width:2.0;"/><!--MD5=[d4a0103b2846085102673554510486e6]
reverse link Cartridge to CPUBus--><path codeLine="30" d="M651.14,275.04 C664.22,319.22 678.14,389.3 658,446 C641.02,493.76 601.64,537.36 572.18,565.1 " fill="none" id="Cartridge-backto-CPUBus" style="stroke:#A80036;stroke-width:2.0;"/><polygon fill="#A80036" points="648.22,265.66,645.9331,285.2245,651.193,275.2078,661.2096,280.4677,648.22,265.66" style="stroke:#A80036;stroke-width:2.0;"/><!--MD5=[94db9f6cf7e5c576fa43c5b9ce254ece]
reverse link Cartridge to PPUBus--><path codeLine="31" d="M614.98,274.04 C598.56,306.9 576.1,351.78 561.34,381.32 " fill="none" id="Cartridge-backto-PPUBus" style="stroke:#A80036;stroke-width:2.0;"/><polygon fill="#A80036" points="619.38,265.24,604.1588,277.7426,614.8964,274.1786,618.4604,284.9162,619.38,265.24" style="stroke:#A80036;stroke-width:2.0;"/><!--MD5=[2cce51b8b493b19688d646c3531af860]
@startuml project_overview
scale 2
hide empty members

class System

class CPU
class CPUBus
class Instruction

class PPU
class PPUBus
class Renderer

class Cartridge
class MapperNROM


System *- - CPU
System *- - PPU
System *- - Cartridge

CPU *- - CPUBus
CPU *- - Instruction

PPU *- - PPUBus
PPU *- - Renderer
PPU <- - CPU

Cartridge *- - MapperNROM
Cartridge <- - CPUBus
Cartridge <- - PPUBus
@enduml

PlantUML version 1.2021.00(Sun Jan 10 11:25:05 CET 2021)
(MIT source distribution)
Java Runtime: OpenJDK Runtime Environment
JVM: OpenJDK 64-Bit Server VM
Default Encoding: UTF-8
Language: en
Country: US
--></g></svg>