<?xml version="1.0" encoding="UTF-8" standalone="no"?><svg xmlns="http://www.w3.org/2000/svg" xmlns:xlink="http://www.w3.org/1999/xlink" contentScriptType="application/ecmascript" contentStyleType="text/css" height="658px" preserveAspectRatio="none" style="width:1164px;height:658px;" version="1.1" viewBox="0 0 1164 658" width="1164px" zoomAndPan="magnify"><defs><filter height="300%" id="f1szykje4mi267" width="300%" x="-1" y="-1"><feGaussianBlur result="blurOut" stdDeviation="4.0"/><feColorMatrix in="blurOut" result="blurOut2" type="matrix" values="0 0 0 0 0 0 0 0 0 0 0 0 0 0 0 0 0 0 .4 0"/><feOffset dx="8.0" dy="8.0" in="blurOut2" result="blurOut3"/><feBlend in="SourceGraphic" in2="blurOut3" mode="normal"/></filter></defs><g><!--MD5=[f8e092794d52bf9a252466252ae7bd1c]
class System--><rect codeLine="4" fill="#FEFECE" filter="url(#f1szykje4mi267)" height="64" id="System" style="stroke:#A80036;stroke-width:3.0;" width="146" x="459" y="14"/><ellipse cx="489" cy="46" fill="#ADD1B2" rx="22" ry="22" style="stroke:#A80036;stroke-width:2.0;"/><path d="M487.9375,59.8438 Q484.4375,59.8438 482.1563,58.375 Q479.9063,56.875 478.7813,54.1875 Q477.6875,51.4688 477.6875,47.875 Q477.6875,43.8125 479,40.9063 Q480.3125,38 482.875,36.4375 Q485.4375,34.875 489.1875,34.875 Q490.9688,34.875 492.3125,35.25 Q493.6563,35.5938 495.0313,36.2813 L493.4063,40.3125 Q492.1563,39.6875 491.0625,39.4375 Q490,39.1875 489.0313,39.1875 Q486.6875,39.1875 485.2813,40.25 Q483.875,41.3125 483.2813,43.2188 Q482.6875,45.125 482.6875,47.6563 Q482.6875,51.6875 484.125,53.625 Q485.5625,55.5313 488.75,55.5313 Q489.9375,55.5313 491.1875,55.2188 Q492.4375,54.9063 494.0938,54.1563 L494.0938,58.5938 Q492.625,59.2188 491.0313,59.5313 Q489.4688,59.8438 487.9375,59.8438 Z " fill="#000000"/><text fill="#000000" font-family="sans-serif" font-size="24" lengthAdjust="spacing" textLength="82" x="517" y="55.3121">System</text><!--MD5=[1d7ba1c7002d54515419844fbd155368]
class Controller--><rect codeLine="5" fill="#FEFECE" filter="url(#f1szykje4mi267)" height="64" id="Controller" style="stroke:#A80036;stroke-width:3.0;" width="176" x="14" y="198"/><ellipse cx="44" cy="230" fill="#ADD1B2" rx="22" ry="22" style="stroke:#A80036;stroke-width:2.0;"/><path d="M42.9375,243.8438 Q39.4375,243.8438 37.1563,242.375 Q34.9063,240.875 33.7813,238.1875 Q32.6875,235.4688 32.6875,231.875 Q32.6875,227.8125 34,224.9063 Q35.3125,222 37.875,220.4375 Q40.4375,218.875 44.1875,218.875 Q45.9688,218.875 47.3125,219.25 Q48.6563,219.5938 50.0313,220.2813 L48.4063,224.3125 Q47.1563,223.6875 46.0625,223.4375 Q45,223.1875 44.0313,223.1875 Q41.6875,223.1875 40.2813,224.25 Q38.875,225.3125 38.2813,227.2188 Q37.6875,229.125 37.6875,231.6563 Q37.6875,235.6875 39.125,237.625 Q40.5625,239.5313 43.75,239.5313 Q44.9375,239.5313 46.1875,239.2188 Q47.4375,238.9063 49.0938,238.1563 L49.0938,242.5938 Q47.625,243.2188 46.0313,243.5313 Q44.4688,243.8438 42.9375,243.8438 Z " fill="#000000"/><text fill="#000000" font-family="sans-serif" font-size="24" lengthAdjust="spacing" textLength="112" x="72" y="239.3121">Controller</text><!--MD5=[1d7c5a491d68c757d98f4015f46ff360]
class CPU--><rect codeLine="7" fill="#FEFECE" filter="url(#f1szykje4mi267)" height="64" id="CPU" style="stroke:#A80036;stroke-width:3.0;" width="112" x="988" y="382"/><ellipse cx="1018" cy="414" fill="#ADD1B2" rx="22" ry="22" style="stroke:#A80036;stroke-width:2.0;"/><path d="M1016.9375,427.8438 Q1013.4375,427.8438 1011.1563,426.375 Q1008.9063,424.875 1007.7813,422.1875 Q1006.6875,419.4688 1006.6875,415.875 Q1006.6875,411.8125 1008,408.9063 Q1009.3125,406 1011.875,404.4375 Q1014.4375,402.875 1018.1875,402.875 Q1019.9688,402.875 1021.3125,403.25 Q1022.6563,403.5938 1024.0313,404.2813 L1022.4063,408.3125 Q1021.1563,407.6875 1020.0625,407.4375 Q1019,407.1875 1018.0313,407.1875 Q1015.6875,407.1875 1014.2813,408.25 Q1012.875,409.3125 1012.2813,411.2188 Q1011.6875,413.125 1011.6875,415.6563 Q1011.6875,419.6875 1013.125,421.625 Q1014.5625,423.5313 1017.75,423.5313 Q1018.9375,423.5313 1020.1875,423.2188 Q1021.4375,422.9063 1023.0938,422.1563 L1023.0938,426.5938 Q1021.625,427.2188 1020.0313,427.5313 Q1018.4688,427.8438 1016.9375,427.8438 Z " fill="#000000"/><text fill="#000000" font-family="sans-serif" font-size="24" lengthAdjust="spacing" textLength="48" x="1046" y="423.3121">CPU</text><!--MD5=[a333ef3886df6cf37a2df872d989ef91]
class CPUBus--><rect codeLine="8" fill="#FEFECE" filter="url(#f1szykje4mi267)" height="64" id="CPUBus" style="stroke:#A80036;stroke-width:3.0;" width="154" x="51" y="566"/><ellipse cx="81" cy="598" fill="#ADD1B2" rx="22" ry="22" style="stroke:#A80036;stroke-width:2.0;"/><path d="M79.9375,611.8438 Q76.4375,611.8438 74.1563,610.375 Q71.9063,608.875 70.7813,606.1875 Q69.6875,603.4688 69.6875,599.875 Q69.6875,595.8125 71,592.9063 Q72.3125,590 74.875,588.4375 Q77.4375,586.875 81.1875,586.875 Q82.9688,586.875 84.3125,587.25 Q85.6563,587.5938 87.0313,588.2813 L85.4063,592.3125 Q84.1563,591.6875 83.0625,591.4375 Q82,591.1875 81.0313,591.1875 Q78.6875,591.1875 77.2813,592.25 Q75.875,593.3125 75.2813,595.2188 Q74.6875,597.125 74.6875,599.6563 Q74.6875,603.6875 76.125,605.625 Q77.5625,607.5313 80.75,607.5313 Q81.9375,607.5313 83.1875,607.2188 Q84.4375,606.9063 86.0938,606.1563 L86.0938,610.5938 Q84.625,611.2188 83.0313,611.5313 Q81.4688,611.8438 79.9375,611.8438 Z " fill="#000000"/><text fill="#000000" font-family="sans-serif" font-size="24" lengthAdjust="spacing" textLength="90" x="109" y="607.3121">CPUBus</text><!--MD5=[818ce9cd1eb68477d70117a0a20ac581]
class Instruction--><rect codeLine="9" fill="#FEFECE" filter="url(#f1szykje4mi267)" height="64" id="Instruction" style="stroke:#A80036;stroke-width:3.0;" width="184" x="952" y="566"/><ellipse cx="982" cy="598" fill="#ADD1B2" rx="22" ry="22" style="stroke:#A80036;stroke-width:2.0;"/><path d="M980.9375,611.8438 Q977.4375,611.8438 975.1563,610.375 Q972.9063,608.875 971.7813,606.1875 Q970.6875,603.4688 970.6875,599.875 Q970.6875,595.8125 972,592.9063 Q973.3125,590 975.875,588.4375 Q978.4375,586.875 982.1875,586.875 Q983.9688,586.875 985.3125,587.25 Q986.6563,587.5938 988.0313,588.2813 L986.4063,592.3125 Q985.1563,591.6875 984.0625,591.4375 Q983,591.1875 982.0313,591.1875 Q979.6875,591.1875 978.2813,592.25 Q976.875,593.3125 976.2813,595.2188 Q975.6875,597.125 975.6875,599.6563 Q975.6875,603.6875 977.125,605.625 Q978.5625,607.5313 981.75,607.5313 Q982.9375,607.5313 984.1875,607.2188 Q985.4375,606.9063 987.0938,606.1563 L987.0938,610.5938 Q985.625,611.2188 984.0313,611.5313 Q982.4688,611.8438 980.9375,611.8438 Z " fill="#000000"/><text fill="#000000" font-family="sans-serif" font-size="24" lengthAdjust="spacing" textLength="120" x="1010" y="607.3121">Instruction</text><!--MD5=[a49dd864a3ee26e9fa19420ec95892e7]
class PPU--><rect codeLine="11" fill="#FEFECE" filter="url(#f1szykje4mi267)" height="64" id="PPU" style="stroke:#A80036;stroke-width:3.0;" width="110" x="619" y="198"/><ellipse cx="649" cy="230" fill="#ADD1B2" rx="22" ry="22" style="stroke:#A80036;stroke-width:2.0;"/><path d="M647.9375,243.8438 Q644.4375,243.8438 642.1563,242.375 Q639.9063,240.875 638.7813,238.1875 Q637.6875,235.4688 637.6875,231.875 Q637.6875,227.8125 639,224.9063 Q640.3125,222 642.875,220.4375 Q645.4375,218.875 649.1875,218.875 Q650.9688,218.875 652.3125,219.25 Q653.6563,219.5938 655.0313,220.2813 L653.4063,224.3125 Q652.1563,223.6875 651.0625,223.4375 Q650,223.1875 649.0313,223.1875 Q646.6875,223.1875 645.2813,224.25 Q643.875,225.3125 643.2813,227.2188 Q642.6875,229.125 642.6875,231.6563 Q642.6875,235.6875 644.125,237.625 Q645.5625,239.5313 648.75,239.5313 Q649.9375,239.5313 651.1875,239.2188 Q652.4375,238.9063 654.0938,238.1563 L654.0938,242.5938 Q652.625,243.2188 651.0313,243.5313 Q649.4688,243.8438 647.9375,243.8438 Z " fill="#000000"/><text fill="#000000" font-family="sans-serif" font-size="24" lengthAdjust="spacing" textLength="46" x="677" y="239.3121">PPU</text><!--MD5=[39059a76a0921463cceac64ac57893ba]
class PPUBus--><rect codeLine="12" fill="#FEFECE" filter="url(#f1szykje4mi267)" height="64" id="PPUBus" style="stroke:#A80036;stroke-width:3.0;" width="152" x="528" y="382"/><ellipse cx="558" cy="414" fill="#ADD1B2" rx="22" ry="22" style="stroke:#A80036;stroke-width:2.0;"/><path d="M556.9375,427.8438 Q553.4375,427.8438 551.1563,426.375 Q548.9063,424.875 547.7813,422.1875 Q546.6875,419.4688 546.6875,415.875 Q546.6875,411.8125 548,408.9063 Q549.3125,406 551.875,404.4375 Q554.4375,402.875 558.1875,402.875 Q559.9688,402.875 561.3125,403.25 Q562.6563,403.5938 564.0313,404.2813 L562.4063,408.3125 Q561.1563,407.6875 560.0625,407.4375 Q559,407.1875 558.0313,407.1875 Q555.6875,407.1875 554.2813,408.25 Q552.875,409.3125 552.2813,411.2188 Q551.6875,413.125 551.6875,415.6563 Q551.6875,419.6875 553.125,421.625 Q554.5625,423.5313 557.75,423.5313 Q558.9375,423.5313 560.1875,423.2188 Q561.4375,422.9063 563.0938,422.1563 L563.0938,426.5938 Q561.625,427.2188 560.0313,427.5313 Q558.4688,427.8438 556.9375,427.8438 Z " fill="#000000"/><text fill="#000000" font-family="sans-serif" font-size="24" lengthAdjust="spacing" textLength="88" x="586" y="423.3121">PPUBus</text><!--MD5=[4945c737fad898a5ce312252f730d528]
class Renderer--><rect codeLine="13" fill="#FEFECE" filter="url(#f1szykje4mi267)" height="64" id="Renderer" style="stroke:#A80036;stroke-width:3.0;" width="168" x="750" y="382"/><ellipse cx="780" cy="414" fill="#ADD1B2" rx="22" ry="22" style="stroke:#A80036;stroke-width:2.0;"/><path d="M778.9375,427.8438 Q775.4375,427.8438 773.1563,426.375 Q770.9063,424.875 769.7813,422.1875 Q768.6875,419.4688 768.6875,415.875 Q768.6875,411.8125 770,408.9063 Q771.3125,406 773.875,404.4375 Q776.4375,402.875 780.1875,402.875 Q781.9688,402.875 783.3125,403.25 Q784.6563,403.5938 786.0313,404.2813 L784.4063,408.3125 Q783.1563,407.6875 782.0625,407.4375 Q781,407.1875 780.0313,407.1875 Q777.6875,407.1875 776.2813,408.25 Q774.875,409.3125 774.2813,411.2188 Q773.6875,413.125 773.6875,415.6563 Q773.6875,419.6875 775.125,421.625 Q776.5625,423.5313 779.75,423.5313 Q780.9375,423.5313 782.1875,423.2188 Q783.4375,422.9063 785.0938,422.1563 L785.0938,426.5938 Q783.625,427.2188 782.0313,427.5313 Q780.4688,427.8438 778.9375,427.8438 Z " fill="#000000"/><text fill="#000000" font-family="sans-serif" font-size="24" lengthAdjust="spacing" textLength="104" x="808" y="423.3121">Renderer</text><!--MD5=[de894fcfecf00f9dbd2de788d1f11225]
class Cartridge--><rect codeLine="15" fill="#FEFECE" filter="url(#f1szykje4mi267)" height="64" id="Cartridge" style="stroke:#A80036;stroke-width:3.0;" width="170" x="319" y="198"/><ellipse cx="349" cy="230" fill="#ADD1B2" rx="22" ry="22" style="stroke:#A80036;stroke-width:2.0;"/><path d="M347.9375,243.8438 Q344.4375,243.8438 342.1563,242.375 Q339.9063,240.875 338.7813,238.1875 Q337.6875,235.4688 337.6875,231.875 Q337.6875,227.8125 339,224.9063 Q340.3125,222 342.875,220.4375 Q345.4375,218.875 349.1875,218.875 Q350.9688,218.875 352.3125,219.25 Q353.6563,219.5938 355.0313,220.2813 L353.4063,224.3125 Q352.1563,223.6875 351.0625,223.4375 Q350,223.1875 349.0313,223.1875 Q346.6875,223.1875 345.2813,224.25 Q343.875,225.3125 343.2813,227.2188 Q342.6875,229.125 342.6875,231.6563 Q342.6875,235.6875 344.125,237.625 Q345.5625,239.5313 348.75,239.5313 Q349.9375,239.5313 351.1875,239.2188 Q352.4375,238.9063 354.0938,238.1563 L354.0938,242.5938 Q352.625,243.2188 351.0313,243.5313 Q349.4688,243.8438 347.9375,243.8438 Z " fill="#000000"/><text fill="#000000" font-family="sans-serif" font-size="24" lengthAdjust="spacing" textLength="106" x="377" y="239.3121">Cartridge</text><!--MD5=[17e1c1a0a8219605fa597c0a44bc2e80]
class MapperNROM--><rect codeLine="16" fill="#FEFECE" filter="url(#f1szykje4mi267)" height="64" id="MapperNROM" style="stroke:#A80036;stroke-width:3.0;" width="224" x="234" y="382"/><ellipse cx="264" cy="414" fill="#ADD1B2" rx="22" ry="22" style="stroke:#A80036;stroke-width:2.0;"/><path d="M262.9375,427.8438 Q259.4375,427.8438 257.1563,426.375 Q254.9063,424.875 253.7813,422.1875 Q252.6875,419.4688 252.6875,415.875 Q252.6875,411.8125 254,408.9063 Q255.3125,406 257.875,404.4375 Q260.4375,402.875 264.1875,402.875 Q265.9688,402.875 267.3125,403.25 Q268.6563,403.5938 270.0313,404.2813 L268.4063,408.3125 Q267.1563,407.6875 266.0625,407.4375 Q265,407.1875 264.0313,407.1875 Q261.6875,407.1875 260.2813,408.25 Q258.875,409.3125 258.2813,411.2188 Q257.6875,413.125 257.6875,415.6563 Q257.6875,419.6875 259.125,421.625 Q260.5625,423.5313 263.75,423.5313 Q264.9375,423.5313 266.1875,423.2188 Q267.4375,422.9063 269.0938,422.1563 L269.0938,426.5938 Q267.625,427.2188 266.0313,427.5313 Q264.4688,427.8438 262.9375,427.8438 Z " fill="#000000"/><text fill="#000000" font-family="sans-serif" font-size="24" lengthAdjust="spacing" textLength="160" x="292" y="423.3121">MapperNROM</text><!--MD5=[dc934a07216ef01441cebebc83705d59]
reverse link System to CPU--><path codeLine="19" d="M605.64,93.54 C651.74,122.54 712.04,161.44 764,198 C852.56,260.32 952.52,338.76 1005.76,381.24 " fill="none" id="System-backto-CPU" style="stroke:#A80036;stroke-width:2.0;"/><polygon fill="#A80036" points="584.2,80.1,590.1222,93.2502,604.5386,92.8413,598.6164,79.6911,584.2,80.1" style="stroke:#A80036;stroke-width:2.0;"/><!--MD5=[cf83f15cf4c9c78c8f3e01b325a89f4f]
reverse link System to PPU--><path codeLine="20" d="M573.64,100.78 C598.4,132.18 628.94,170.9 649.8,197.32 " fill="none" id="System-backto-PPU" style="stroke:#A80036;stroke-width:2.0;"/><polygon fill="#A80036" points="557.96,80.92,559.1108,95.2962,572.8238,99.7633,571.673,85.387,557.96,80.92" style="stroke:#A80036;stroke-width:2.0;"/><!--MD5=[2353663247ee01f1e42bce075d923c44]
reverse link System to Cartridge--><path codeLine="21" d="M493.8,101.7 C471.6,132.94 444.42,171.16 425.82,197.32 " fill="none" id="System-backto-Cartridge" style="stroke:#A80036;stroke-width:2.0;"/><polygon fill="#A80036" points="508.54,81,495.069,86.151,494.6427,100.567,508.1137,95.4159,508.54,81" style="stroke:#A80036;stroke-width:2.0;"/><!--MD5=[0879854228aafe81eaea281efb17b438]
reverse link System to Controller--><path codeLine="22" d="M431.68,90 C353.32,122.8 246.26,167.62 175.68,197.16 " fill="none" id="System-backto-Controller" style="stroke:#A80036;stroke-width:2.0;"/><polygon fill="#A80036" points="455.28,80.12,441.1222,77.3711,433.1394,89.3826,447.2973,92.1315,455.28,80.12" style="stroke:#A80036;stroke-width:2.0;"/><!--MD5=[e3f703f2c097f42f96567eb90b3ab72c]
reverse link Controller to CPUBus--><path codeLine="23" d="M89.48,275.2 C78.62,318.54 66.08,387.14 76,446 C83.18,488.68 101.12,535.42 113.9,565.2 " fill="none" id="Controller-backto-CPUBus" style="stroke:#A80036;stroke-width:2.0;"/><polygon fill="#A80036" points="92,265.54,79.6915,280.9185,89.4607,275.2122,95.167,284.9815,92,265.54" style="stroke:#A80036;stroke-width:2.0;"/><!--MD5=[e12e6d96017279ee018bea5f29514bb5]
reverse link CPU to CPUBus--><path codeLine="25" d="M959.64,444.52 C957.74,445.02 955.86,445.52 954,446 C682.56,515.52 352.98,565.22 205.66,585.66 " fill="none" id="CPU-backto-CPUBus" style="stroke:#A80036;stroke-width:2.0;"/><polygon fill="#A80036" points="984.32,437.14,970.5344,432.9023,961.3206,443.9976,975.1062,448.2353,984.32,437.14" style="stroke:#A80036;stroke-width:2.0;"/><!--MD5=[0f9976128e9ee7d497bb336edef72f8c]
reverse link CPU to Instruction--><path codeLine="26" d="M1044,475.34 C1044,505.42 1044,540.7 1044,565.32 " fill="none" id="CPU-backto-Instruction" style="stroke:#A80036;stroke-width:2.0;"/><polygon fill="#A80036" points="1044,449.56,1036,461.56,1044,473.56,1052,461.56,1044,449.56" style="stroke:#A80036;stroke-width:2.0;"/><!--MD5=[1d24fc50f2f6e8b5fab47bcaa4cecbd6]
reverse link PPU to PPUBus--><path codeLine="28" d="M651.66,289.46 C639.8,319.94 625.7,356.18 615.94,381.32 " fill="none" id="PPU-backto-PPUBus" style="stroke:#A80036;stroke-width:2.0;"/><polygon fill="#A80036" points="661.02,265.36,649.2127,273.6418,652.3162,287.7261,664.1235,279.4443,661.02,265.36" style="stroke:#A80036;stroke-width:2.0;"/><!--MD5=[ce87d9d10e4ec33170be5be241fc9835]
reverse link PPU to Renderer--><path codeLine="29" d="M720.1,283.86 C748.14,315.42 783,354.64 806.72,381.32 " fill="none" id="PPU-backto-Renderer" style="stroke:#A80036;stroke-width:2.0;"/><polygon fill="#A80036" points="703.16,264.8,705.1596,279.0829,719.1129,282.7305,717.1133,268.4476,703.16,264.8" style="stroke:#A80036;stroke-width:2.0;"/><!--MD5=[f9a8fb8e413a9172bcbd7e6822dbd824]
reverse link PPU to CPU--><path codeLine="30" d="M740.32,264.26 C810.62,298.46 920.48,351.9 987.02,384.28 " fill="none" id="PPU-backto-CPU" style="stroke:#A80036;stroke-width:2.0;"/><polygon fill="#A80036" points="732.12,260.28,744.8159,275.3403,741.1151,264.649,751.8064,260.9482,732.12,260.28" style="stroke:#A80036;stroke-width:2.0;"/><!--MD5=[618e77a4f0811745c464e3d98fc8fbd9]
reverse link Cartridge to MapperNROM--><path codeLine="32" d="M385.48,289.46 C375.66,319.94 363.98,356.18 355.88,381.32 " fill="none" id="Cartridge-backto-MapperNROM" style="stroke:#A80036;stroke-width:2.0;"/><polygon fill="#A80036" points="393.24,265.42,381.9456,274.3887,385.8804,288.2637,397.1748,279.2951,393.24,265.42" style="stroke:#A80036;stroke-width:2.0;"/><!--MD5=[d4a0103b2846085102673554510486e6]
reverse link Cartridge to CPUBus--><path codeLine="33" d="M331.66,269.26 C287.4,295.4 232.78,334.18 198,382 C156.62,438.9 138.82,521.58 131.9,565.66 " fill="none" id="Cartridge-backto-CPUBus" style="stroke:#A80036;stroke-width:2.0;"/><polygon fill="#A80036" points="340.06,264.4,320.4719,266.4748,331.4005,269.4013,328.474,280.33,340.06,264.4" style="stroke:#A80036;stroke-width:2.0;"/><!--MD5=[94db9f6cf7e5c576fa43c5b9ce254ece]
reverse link Cartridge to PPUBus--><path codeLine="34" d="M446.92,270.62 C483.7,303.72 535.94,350.74 569.9,381.32 " fill="none" id="Cartridge-backto-PPUBus" style="stroke:#A80036;stroke-width:2.0;"/><polygon fill="#A80036" points="440.18,264.56,448.2038,282.5494,447.6115,271.2512,458.9097,270.659,440.18,264.56" style="stroke:#A80036;stroke-width:2.0;"/><!--MD5=[d7e9097d77bce0f36264a4d5e9549293]
@startuml project_overview
scale 2
hide empty members

class System
class Controller

class CPU
class CPUBus
class Instruction

class PPU
class PPUBus
class Renderer

class Cartridge
class MapperNROM


System *- - CPU
System *- - PPU
System *- - Cartridge
System *- - Controller
Controller <- - CPUBus

CPU *- - CPUBus
CPU *- - Instruction

PPU *- - PPUBus
PPU *- - Renderer
PPU <- - CPU

Cartridge *- - MapperNROM
Cartridge <- - CPUBus
Cartridge <- - PPUBus
@enduml

PlantUML version 1.2021.00(Sun Jan 10 11:25:05 CET 2021)
(MIT source distribution)
Java Runtime: OpenJDK Runtime Environment
JVM: OpenJDK 64-Bit Server VM
Default Encoding: UTF-8
Language: en
Country: US
--></g></svg>