<?xml version="1.0" encoding="UTF-8" standalone="no"?><svg xmlns="http://www.w3.org/2000/svg" xmlns:xlink="http://www.w3.org/1999/xlink" contentScriptType="application/ecmascript" contentStyleType="text/css" height="1096px" preserveAspectRatio="none" style="width:456px;height:1096px;" version="1.1" viewBox="0 0 456 1096" width="456px" zoomAndPan="magnify"><defs><filter height="300%" id="f10d4y6v68ynvo" width="300%" x="-1" y="-1"><feGaussianBlur result="blurOut" stdDeviation="4.0"/><feColorMatrix in="blurOut" result="blurOut2" type="matrix" values="0 0 0 0 0 0 0 0 0 0 0 0 0 0 0 0 0 0 .4 0"/><feOffset dx="8.0" dy="8.0" in="blurOut2" result="blurOut3"/><feBlend in="SourceGraphic" in2="blurOut3" mode="normal"/></filter></defs><g><!--MD5=[1d7c5a491d68c757d98f4015f46ff360]
class CPU--><rect codeLine="4" fill="#FEFECE" filter="url(#f10d4y6v68ynvo)" height="1054.8408" id="CPU" style="stroke:#A80036;stroke-width:3.0;" width="414" x="14" y="14"/><ellipse cx="188.5" cy="46" fill="#ADD1B2" rx="22" ry="22" style="stroke:#A80036;stroke-width:2.0;"/><path d="M187.4375,59.8438 Q183.9375,59.8438 181.6563,58.375 Q179.4063,56.875 178.2813,54.1875 Q177.1875,51.4688 177.1875,47.875 Q177.1875,43.8125 178.5,40.9063 Q179.8125,38 182.375,36.4375 Q184.9375,34.875 188.6875,34.875 Q190.4688,34.875 191.8125,35.25 Q193.1563,35.5938 194.5313,36.2813 L192.9063,40.3125 Q191.6563,39.6875 190.5625,39.4375 Q189.5,39.1875 188.5313,39.1875 Q186.1875,39.1875 184.7813,40.25 Q183.375,41.3125 182.7813,43.2188 Q182.1875,45.125 182.1875,47.6563 Q182.1875,51.6875 183.625,53.625 Q185.0625,55.5313 188.25,55.5313 Q189.4375,55.5313 190.6875,55.2188 Q191.9375,54.9063 193.5938,54.1563 L193.5938,58.5938 Q192.125,59.2188 190.5313,59.5313 Q188.9688,59.8438 187.4375,59.8438 Z " fill="#000000"/><text fill="#000000" font-family="sans-serif" font-size="24" lengthAdjust="spacing" textLength="48" x="229.5" y="55.3121">CPU</text><line style="stroke:#A80036;stroke-width:3.0;" x1="16" x2="426" y1="78" y2="78"/><rect fill="none" height="12" style="stroke:#C82930;stroke-width:2.0;" width="12" x="30" y="94"/><text fill="#000000" font-family="sans-serif" font-size="22" lengthAdjust="spacing" textLength="136" x="54" y="109.5178">memory_bus</text><rect fill="none" height="12" style="stroke:#C82930;stroke-width:2.0;" width="12" x="30" y="123.9638"/><text fill="#000000" font-family="sans-serif" font-size="22" lengthAdjust="spacing" textLength="32" x="54" y="139.4816">acc</text><rect fill="none" height="12" style="stroke:#C82930;stroke-width:2.0;" width="12" x="30" y="153.9276"/><text fill="#000000" font-family="sans-serif" font-size="22" lengthAdjust="spacing" textLength="58" x="54" y="169.4454">x_reg</text><rect fill="none" height="12" style="stroke:#C82930;stroke-width:2.0;" width="12" x="30" y="183.8913"/><text fill="#000000" font-family="sans-serif" font-size="22" lengthAdjust="spacing" textLength="58" x="54" y="199.4092">y_reg</text><rect fill="none" height="12" style="stroke:#C82930;stroke-width:2.0;" width="12" x="30" y="213.8551"/><text fill="#000000" font-family="sans-serif" font-size="22" lengthAdjust="spacing" textLength="94" x="54" y="229.3729">stack_ptr</text><rect fill="none" height="12" style="stroke:#C82930;stroke-width:2.0;" width="12" x="30" y="243.8189"/><text fill="#000000" font-family="sans-serif" font-size="22" lengthAdjust="spacing" textLength="24" x="54" y="259.3367">pc</text><rect fill="none" height="12" style="stroke:#C82930;stroke-width:2.0;" width="12" x="30" y="273.7827"/><text fill="#000000" font-family="sans-serif" font-size="22" lengthAdjust="spacing" textLength="62" x="54" y="289.3005">status</text><rect fill="none" height="12" style="stroke:#C82930;stroke-width:2.0;" width="12" x="30" y="303.7464"/><text fill="#000000" font-family="sans-serif" font-size="22" lengthAdjust="spacing" textLength="144" x="54" y="319.2643">branch_offset</text><rect fill="none" height="12" style="stroke:#C82930;stroke-width:2.0;" width="12" x="30" y="333.7102"/><text fill="#000000" font-family="sans-serif" font-size="22" lengthAdjust="spacing" textLength="128" x="54" y="349.228">arg_address</text><rect fill="none" height="12" style="stroke:#C82930;stroke-width:2.0;" width="12" x="30" y="363.674"/><text fill="#000000" font-family="sans-serif" font-size="22" lengthAdjust="spacing" textLength="150" x="54" y="379.1918">cycles_queued</text><rect fill="none" height="12" style="stroke:#C82930;stroke-width:2.0;" width="12" x="30" y="393.6378"/><text fill="#000000" font-family="sans-serif" font-size="22" lengthAdjust="spacing" textLength="164" x="54" y="409.1556">cycles_executed</text><rect fill="none" height="12" style="stroke:#C82930;stroke-width:2.0;" width="12" x="30" y="423.6015"/><text fill="#000000" font-family="sans-serif" font-size="22" lengthAdjust="spacing" textLength="202" x="54" y="439.1194">current_instruction</text><line style="stroke:#A80036;stroke-width:3.0;" x1="16" x2="426" y1="453.5653" y2="453.5653"/><ellipse cx="36" cy="475.5653" fill="#84BE84" rx="6" ry="6" style="stroke:#038048;stroke-width:2.0;"/><text fill="#000000" font-family="sans-serif" font-size="22" lengthAdjust="spacing" textLength="304" x="54" y="485.0831">connect_bus_with_cartridge()</text><ellipse cx="36" cy="505.5291" fill="#84BE84" rx="6" ry="6" style="stroke:#038048;stroke-width:2.0;"/><text fill="#000000" font-family="sans-serif" font-size="22" lengthAdjust="spacing" textLength="160" x="54" y="515.0469">perform_cycle()</text><ellipse cx="36" cy="535.4929" fill="#84BE84" rx="6" ry="6" style="stroke:#038048;stroke-width:2.0;"/><text fill="#000000" font-family="sans-serif" font-size="22" lengthAdjust="spacing" textLength="124" x="54" y="545.0107">hard_reset()</text><ellipse cx="36" cy="565.4566" fill="#84BE84" rx="6" ry="6" style="stroke:#038048;stroke-width:2.0;"/><text fill="#000000" font-family="sans-serif" font-size="22" lengthAdjust="spacing" textLength="176" x="54" y="574.9745">log_debug_info()</text><rect fill="#F24D5C" height="12" style="stroke:#C82930;stroke-width:2.0;" width="12" x="30" y="589.4204"/><text fill="#000000" font-family="sans-serif" font-size="22" lengthAdjust="spacing" textLength="146" x="54" y="604.9382">write_to_bus()</text><rect fill="#F24D5C" height="12" style="stroke:#C82930;stroke-width:2.0;" width="12" x="30" y="619.3842"/><text fill="#000000" font-family="sans-serif" font-size="22" lengthAdjust="spacing" textLength="126" x="54" y="634.902">stack_push()</text><rect fill="#F24D5C" height="12" style="stroke:#C82930;stroke-width:2.0;" width="12" x="30" y="649.348"/><text fill="#000000" font-family="sans-serif" font-size="22" lengthAdjust="spacing" textLength="170" x="54" y="664.8658">read_from_bus()</text><rect fill="#F24D5C" height="12" style="stroke:#C82930;stroke-width:2.0;" width="12" x="30" y="679.3117"/><text fill="#000000" font-family="sans-serif" font-size="22" lengthAdjust="spacing" textLength="116" x="54" y="694.8296">stack_pop()</text><rect fill="#F24D5C" height="12" style="stroke:#C82930;stroke-width:2.0;" width="12" x="30" y="709.2755"/><text fill="#000000" font-family="sans-serif" font-size="22" lengthAdjust="spacing" textLength="362" x="54" y="724.7933">decode_instruction_from_opcode()</text><rect fill="#F24D5C" height="12" style="stroke:#C82930;stroke-width:2.0;" width="12" x="30" y="739.2393"/><text fill="#000000" font-family="sans-serif" font-size="22" lengthAdjust="spacing" textLength="182" x="54" y="754.7571">next_instruction()</text><rect fill="#F24D5C" height="12" style="stroke:#C82930;stroke-width:2.0;" width="12" x="30" y="769.2031"/><text fill="#000000" font-family="sans-serif" font-size="22" lengthAdjust="spacing" textLength="220" x="54" y="784.7209">exec_address_mode()</text><rect fill="#F24D5C" height="12" style="stroke:#C82930;stroke-width:2.0;" width="12" x="30" y="799.1668"/><text fill="#000000" font-family="sans-serif" font-size="22" lengthAdjust="spacing" textLength="182" x="54" y="814.6847">exec_instruction()</text><rect fill="#F24D5C" height="12" style="stroke:#C82930;stroke-width:2.0;" width="12" x="30" y="829.1306"/><text fill="#000000" font-family="sans-serif" font-size="22" lengthAdjust="spacing" textLength="186" x="54" y="844.6484">read_nmi_vector()</text><rect fill="#F24D5C" height="12" style="stroke:#C82930;stroke-width:2.0;" width="12" x="30" y="859.0944"/><text fill="#000000" font-family="sans-serif" font-size="22" lengthAdjust="spacing" textLength="198" x="54" y="874.6122">read_reset_vector()</text><rect fill="#F24D5C" height="12" style="stroke:#C82930;stroke-width:2.0;" width="12" x="30" y="889.0582"/><text fill="#000000" font-family="sans-serif" font-size="22" lengthAdjust="spacing" textLength="176" x="54" y="904.576">read_irq_vector()</text><rect fill="#F24D5C" height="12" style="stroke:#C82930;stroke-width:2.0;" width="12" x="30" y="919.0219"/><text fill="#000000" font-family="sans-serif" font-size="22" lengthAdjust="spacing" textLength="158" x="54" y="934.5398">interrupt_nmi()</text><rect fill="#F24D5C" height="12" style="stroke:#C82930;stroke-width:2.0;" width="12" x="30" y="948.9857"/><text fill="#000000" font-family="sans-serif" font-size="22" lengthAdjust="spacing" textLength="148" x="54" y="964.5035">interrupt_irq()</text><rect fill="#F24D5C" height="12" style="stroke:#C82930;stroke-width:2.0;" width="12" x="30" y="978.9495"/><text fill="#000000" font-family="sans-serif" font-size="22" lengthAdjust="spacing" textLength="170" x="54" y="994.4673">interrupt_reset()</text><rect fill="#F24D5C" height="12" style="stroke:#C82930;stroke-width:2.0;" width="12" x="30" y="1008.9133"/><text fill="#000000" font-family="sans-serif" font-size="22" lengthAdjust="spacing" textLength="198" x="54" y="1024.4311">process_interrupt()</text><rect fill="#F24D5C" height="12" style="stroke:#C82930;stroke-width:2.0;" width="12" x="30" y="1038.877"/><text fill="#000000" font-family="sans-serif" font-size="22" lengthAdjust="spacing" textLength="218" x="54" y="1054.3949">perform_branching()</text><!--MD5=[ef8eabd0185b7e5c0e1817a0137fc9a5]
@startuml system_overview
scale 2
hide empty members

class CPU {
- memory_bus
- acc
- x_reg
- y_reg
- stack_ptr
- pc
- status
- branch_offset
- arg_address
- cycles_queued
- cycles_executed
- current_instruction

+ connect_bus_with_cartridge()
+ perform_cycle()
+ hard_reset()
+ log_debug_info()
- write_to_bus()
- stack_push()
- read_from_bus()
- stack_pop()
- decode_instruction_from_opcode()
- next_instruction()
- exec_address_mode()
- exec_instruction()
- read_nmi_vector()
- read_reset_vector()
- read_irq_vector()
- interrupt_nmi()
- interrupt_irq()
- interrupt_reset()
- process_interrupt()
- perform_branching()
}
@enduml

PlantUML version 1.2021.00(Sun Jan 10 11:25:05 CET 2021)
(MIT source distribution)
Java Runtime: OpenJDK Runtime Environment
JVM: OpenJDK 64-Bit Server VM
Default Encoding: UTF-8
Language: en
Country: US
--></g></svg>