<?xml version="1.0" encoding="UTF-8" standalone="no"?><svg xmlns="http://www.w3.org/2000/svg" xmlns:xlink="http://www.w3.org/1999/xlink" contentScriptType="application/ecmascript" contentStyleType="text/css" height="556px" preserveAspectRatio="none" style="width:444px;height:556px;" version="1.1" viewBox="0 0 444 556" width="444px" zoomAndPan="magnify"><defs><filter height="300%" id="f11k03g6xkw7j" width="300%" x="-1" y="-1"><feGaussianBlur result="blurOut" stdDeviation="4.0"/><feColorMatrix in="blurOut" result="blurOut2" type="matrix" values="0 0 0 0 0 0 0 0 0 0 0 0 0 0 0 0 0 0 .4 0"/><feOffset dx="8.0" dy="8.0" in="blurOut2" result="blurOut3"/><feBlend in="SourceGraphic" in2="blurOut3" mode="normal"/></filter></defs><g><!--MD5=[a333ef3886df6cf37a2df872d989ef91]
class CPUBus--><rect codeLine="4" fill="#FEFECE" filter="url(#f11k03g6xkw7j)" height="515.4929" id="CPUBus" style="stroke:#A80036;stroke-width:3.0;" width="402" x="14" y="14"/><ellipse cx="161.5" cy="46" fill="#ADD1B2" rx="22" ry="22" style="stroke:#A80036;stroke-width:2.0;"/><path d="M160.4375,59.8438 Q156.9375,59.8438 154.6563,58.375 Q152.4063,56.875 151.2813,54.1875 Q150.1875,51.4688 150.1875,47.875 Q150.1875,43.8125 151.5,40.9063 Q152.8125,38 155.375,36.4375 Q157.9375,34.875 161.6875,34.875 Q163.4688,34.875 164.8125,35.25 Q166.1563,35.5938 167.5313,36.2813 L165.9063,40.3125 Q164.6563,39.6875 163.5625,39.4375 Q162.5,39.1875 161.5313,39.1875 Q159.1875,39.1875 157.7813,40.25 Q156.375,41.3125 155.7813,43.2188 Q155.1875,45.125 155.1875,47.6563 Q155.1875,51.6875 156.625,53.625 Q158.0625,55.5313 161.25,55.5313 Q162.4375,55.5313 163.6875,55.2188 Q164.9375,54.9063 166.5938,54.1563 L166.5938,58.5938 Q165.125,59.2188 163.5313,59.5313 Q161.9688,59.8438 160.4375,59.8438 Z " fill="#000000"/><text fill="#000000" font-family="sans-serif" font-size="24" lengthAdjust="spacing" textLength="90" x="202.5" y="55.3121">CPUBus</text><line style="stroke:#A80036;stroke-width:3.0;" x1="16" x2="414" y1="78" y2="78"/><rect fill="none" height="12" style="stroke:#C82930;stroke-width:2.0;" width="12" x="30" y="94"/><text fill="#000000" font-family="sans-serif" font-size="22" lengthAdjust="spacing" textLength="90" x="54" y="109.5178">cpu_ram</text><rect fill="none" height="12" style="stroke:#C82930;stroke-width:2.0;" width="12" x="30" y="123.9638"/><text fill="#000000" font-family="sans-serif" font-size="22" lengthAdjust="spacing" textLength="138" x="54" y="139.4816">cartridge_ptr</text><rect fill="none" height="12" style="stroke:#C82930;stroke-width:2.0;" width="12" x="30" y="153.9276"/><text fill="#000000" font-family="sans-serif" font-size="22" lengthAdjust="spacing" textLength="82" x="54" y="169.4454">ppu_ref</text><line style="stroke:#A80036;stroke-width:3.0;" x1="16" x2="414" y1="183.8913" y2="183.8913"/><ellipse cx="36" cy="205.8913" fill="#84BE84" rx="6" ry="6" style="stroke:#038048;stroke-width:2.0;"/><text fill="#000000" font-family="sans-serif" font-size="22" lengthAdjust="spacing" textLength="272" x="54" y="215.4092">dispatch_write_to_device()</text><ellipse cx="36" cy="235.8551" fill="#84BE84" rx="6" ry="6" style="stroke:#038048;stroke-width:2.0;"/><text fill="#000000" font-family="sans-serif" font-size="22" lengthAdjust="spacing" textLength="266" x="54" y="245.3729">dispatch_read_to_device()</text><ellipse cx="36" cy="265.8189" fill="#84BE84" rx="6" ry="6" style="stroke:#038048;stroke-width:2.0;"/><text fill="#000000" font-family="sans-serif" font-size="22" lengthAdjust="spacing" textLength="212" x="54" y="275.3367">read_ppu_nmi_flag()</text><ellipse cx="36" cy="295.7827" fill="#84BE84" rx="6" ry="6" style="stroke:#038048;stroke-width:2.0;"/><text fill="#000000" font-family="sans-serif" font-size="22" lengthAdjust="spacing" textLength="214" x="54" y="305.3005">clear_ppu_nmi_flag()</text><rect fill="#F24D5C" height="12" style="stroke:#C82930;stroke-width:2.0;" width="12" x="30" y="319.7464"/><text fill="#000000" font-family="sans-serif" font-size="22" lengthAdjust="spacing" textLength="210" x="54" y="335.2643">send_write_to_ppu()</text><rect fill="#F24D5C" height="12" style="stroke:#C82930;stroke-width:2.0;" width="12" x="30" y="349.7102"/><text fill="#000000" font-family="sans-serif" font-size="22" lengthAdjust="spacing" textLength="350" x="54" y="365.228">send_write_to_mapper_prg_ram()</text><rect fill="#F24D5C" height="12" style="stroke:#C82930;stroke-width:2.0;" width="12" x="30" y="379.674"/><text fill="#000000" font-family="sans-serif" font-size="22" lengthAdjust="spacing" textLength="166" x="54" y="395.1918">cpu_ram_write()</text><rect fill="#F24D5C" height="12" style="stroke:#C82930;stroke-width:2.0;" width="12" x="30" y="409.6378"/><text fill="#000000" font-family="sans-serif" font-size="22" lengthAdjust="spacing" textLength="204" x="54" y="425.1556">send_read_to_ppu()</text><rect fill="#F24D5C" height="12" style="stroke:#C82930;stroke-width:2.0;" width="12" x="30" y="439.6015"/><text fill="#000000" font-family="sans-serif" font-size="22" lengthAdjust="spacing" textLength="344" x="54" y="455.1194">send_read_to_mapper_prg_ram()</text><rect fill="#F24D5C" height="12" style="stroke:#C82930;stroke-width:2.0;" width="12" x="30" y="469.5653"/><text fill="#000000" font-family="sans-serif" font-size="22" lengthAdjust="spacing" textLength="346" x="54" y="485.0831">send_read_to_mapper_prg_rom()</text><rect fill="#F24D5C" height="12" style="stroke:#C82930;stroke-width:2.0;" width="12" x="30" y="499.5291"/><text fill="#000000" font-family="sans-serif" font-size="22" lengthAdjust="spacing" textLength="160" x="54" y="515.0469">cpu_ram_read()</text><!--MD5=[5618c1abd0605be79bf876490e6f9573]
@startuml cpu_bus
scale 2
hide empty members

class CPUBus {
- cpu_ram
- cartridge_ptr
- ppu_ref

+ dispatch_write_to_device()
+ dispatch_read_to_device()
+ read_ppu_nmi_flag()
+ clear_ppu_nmi_flag()
- send_write_to_ppu()
- send_write_to_mapper_prg_ram()
- cpu_ram_write()
- send_read_to_ppu()
- send_read_to_mapper_prg_ram()
- send_read_to_mapper_prg_rom()
- cpu_ram_read()
}
@enduml

PlantUML version 1.2021.00(Sun Jan 10 11:25:05 CET 2021)
(MIT source distribution)
Java Runtime: OpenJDK Runtime Environment
JVM: OpenJDK 64-Bit Server VM
Default Encoding: UTF-8
Language: en
Country: US
--></g></svg>