<?xml version="1.0" encoding="UTF-8" standalone="no"?><svg xmlns="http://www.w3.org/2000/svg" xmlns:xlink="http://www.w3.org/1999/xlink" contentScriptType="application/ecmascript" contentStyleType="text/css" height="556px" preserveAspectRatio="none" style="width:436px;height:556px;" version="1.1" viewBox="0 0 436 556" width="436px" zoomAndPan="magnify"><defs><filter height="300%" id="f1m87wbeoqbw0o" width="300%" x="-1" y="-1"><feGaussianBlur result="blurOut" stdDeviation="4.0"/><feColorMatrix in="blurOut" result="blurOut2" type="matrix" values="0 0 0 0 0 0 0 0 0 0 0 0 0 0 0 0 0 0 .4 0"/><feOffset dx="8.0" dy="8.0" in="blurOut2" result="blurOut3"/><feBlend in="SourceGraphic" in2="blurOut3" mode="normal"/></filter></defs><g><!--MD5=[39059a76a0921463cceac64ac57893ba]
class PPUBus--><rect codeLine="4" fill="#FEFECE" filter="url(#f1m87wbeoqbw0o)" height="515.4929" id="PPUBus" style="stroke:#A80036;stroke-width:3.0;" width="394" x="14" y="14"/><ellipse cx="158.5" cy="46" fill="#ADD1B2" rx="22" ry="22" style="stroke:#A80036;stroke-width:2.0;"/><path d="M157.4375,59.8438 Q153.9375,59.8438 151.6563,58.375 Q149.4063,56.875 148.2813,54.1875 Q147.1875,51.4688 147.1875,47.875 Q147.1875,43.8125 148.5,40.9063 Q149.8125,38 152.375,36.4375 Q154.9375,34.875 158.6875,34.875 Q160.4688,34.875 161.8125,35.25 Q163.1563,35.5938 164.5313,36.2813 L162.9063,40.3125 Q161.6563,39.6875 160.5625,39.4375 Q159.5,39.1875 158.5313,39.1875 Q156.1875,39.1875 154.7813,40.25 Q153.375,41.3125 152.7813,43.2188 Q152.1875,45.125 152.1875,47.6563 Q152.1875,51.6875 153.625,53.625 Q155.0625,55.5313 158.25,55.5313 Q159.4375,55.5313 160.6875,55.2188 Q161.9375,54.9063 163.5938,54.1563 L163.5938,58.5938 Q162.125,59.2188 160.5313,59.5313 Q158.9688,59.8438 157.4375,59.8438 Z " fill="#000000"/><text fill="#000000" font-family="sans-serif" font-size="24" lengthAdjust="spacing" textLength="88" x="199.5" y="55.3121">PPUBus</text><line style="stroke:#A80036;stroke-width:3.0;" x1="16" x2="406" y1="78" y2="78"/><rect fill="none" height="12" style="stroke:#C82930;stroke-width:2.0;" width="12" x="30" y="94"/><text fill="#000000" font-family="sans-serif" font-size="22" lengthAdjust="spacing" textLength="54" x="54" y="109.5178">vram</text><rect fill="none" height="12" style="stroke:#C82930;stroke-width:2.0;" width="12" x="30" y="123.9638"/><text fill="#000000" font-family="sans-serif" font-size="22" lengthAdjust="spacing" textLength="134" x="54" y="139.4816">palettes_ram</text><line style="stroke:#A80036;stroke-width:3.0;" x1="16" x2="406" y1="153.9276" y2="153.9276"/><ellipse cx="36" cy="175.9276" fill="#84BE84" rx="6" ry="6" style="stroke:#038048;stroke-width:2.0;"/><text fill="#000000" font-family="sans-serif" font-size="22" lengthAdjust="spacing" textLength="178" x="54" y="185.4454">insert_cartridge()</text><ellipse cx="36" cy="205.8913" fill="#84BE84" rx="6" ry="6" style="stroke:#038048;stroke-width:2.0;"/><text fill="#000000" font-family="sans-serif" font-size="22" lengthAdjust="spacing" textLength="160" x="54" y="215.4092">clear_memory()</text><ellipse cx="36" cy="235.8551" fill="#84BE84" rx="6" ry="6" style="stroke:#038048;stroke-width:2.0;"/><text fill="#000000" font-family="sans-serif" font-size="22" lengthAdjust="spacing" textLength="272" x="54" y="245.3729">dispatch_write_to_device()</text><ellipse cx="36" cy="265.8189" fill="#84BE84" rx="6" ry="6" style="stroke:#038048;stroke-width:2.0;"/><text fill="#000000" font-family="sans-serif" font-size="22" lengthAdjust="spacing" textLength="266" x="54" y="275.3367">dispatch_read_to_device()</text><rect fill="#F24D5C" height="12" style="stroke:#C82930;stroke-width:2.0;" width="12" x="30" y="289.7827"/><text fill="#000000" font-family="sans-serif" font-size="22" lengthAdjust="spacing" textLength="220" x="54" y="305.3005">process_vram_write()</text><rect fill="#F24D5C" height="12" style="stroke:#C82930;stroke-width:2.0;" width="12" x="30" y="319.7464"/><text fill="#000000" font-family="sans-serif" font-size="22" lengthAdjust="spacing" textLength="300" x="54" y="335.2643">process_palettes_ram_write()</text><rect fill="#F24D5C" height="12" style="stroke:#C82930;stroke-width:2.0;" width="12" x="30" y="349.7102"/><text fill="#000000" font-family="sans-serif" font-size="22" lengthAdjust="spacing" textLength="342" x="54" y="365.228">send_read_to_mapper_chr_rom()</text><rect fill="#F24D5C" height="12" style="stroke:#C82930;stroke-width:2.0;" width="12" x="30" y="379.674"/><text fill="#000000" font-family="sans-serif" font-size="22" lengthAdjust="spacing" textLength="294" x="54" y="395.1918">process_palettes_ram_read()</text><rect fill="#F24D5C" height="12" style="stroke:#C82930;stroke-width:2.0;" width="12" x="30" y="409.6378"/><text fill="#000000" font-family="sans-serif" font-size="22" lengthAdjust="spacing" textLength="272" x="54" y="425.1556">normalize_vram_address()</text><rect fill="#F24D5C" height="12" style="stroke:#C82930;stroke-width:2.0;" width="12" x="30" y="439.6015"/><text fill="#000000" font-family="sans-serif" font-size="22" lengthAdjust="spacing" textLength="300" x="54" y="455.1194">normalize_palettes_address()</text><rect fill="#F24D5C" height="12" style="stroke:#C82930;stroke-width:2.0;" width="12" x="30" y="469.5653"/><text fill="#000000" font-family="sans-serif" font-size="22" lengthAdjust="spacing" textLength="308" x="54" y="485.0831">check_for_palette_mirroring()</text><rect fill="#F24D5C" height="12" style="stroke:#C82930;stroke-width:2.0;" width="12" x="30" y="499.5291"/><text fill="#000000" font-family="sans-serif" font-size="22" lengthAdjust="spacing" textLength="308" x="54" y="515.0469">check_for_background_read()</text><!--MD5=[2c312b3f05aad393c0e810c7a0d627c1]
@startuml ppu_bus
scale 2
hide empty members

class PPUBus {
- vram
- palettes_ram

+ insert_cartridge()
+ clear_memory()
+ dispatch_write_to_device()
+ dispatch_read_to_device()
- process_vram_write()
- process_palettes_ram_write()
- send_read_to_mapper_chr_rom()
- process_palettes_ram_read()
- normalize_vram_address()
- normalize_palettes_address()
- check_for_palette_mirroring()
- check_for_background_read()
}
@enduml

PlantUML version 1.2021.00(Sun Jan 10 11:25:05 CET 2021)
(MIT source distribution)
Java Runtime: OpenJDK Runtime Environment
JVM: OpenJDK 64-Bit Server VM
Default Encoding: UTF-8
Language: en
Country: US
--></g></svg>