<?xml version="1.0" encoding="UTF-8" standalone="no"?><svg xmlns="http://www.w3.org/2000/svg" xmlns:xlink="http://www.w3.org/1999/xlink" contentScriptType="application/ecmascript" contentStyleType="text/css" height="436px" preserveAspectRatio="none" style="width:398px;height:436px;" version="1.1" viewBox="0 0 398 436" width="398px" zoomAndPan="magnify"><defs><filter height="300%" id="f1ijj9heskkdzn" width="300%" x="-1" y="-1"><feGaussianBlur result="blurOut" stdDeviation="4.0"/><feColorMatrix in="blurOut" result="blurOut2" type="matrix" values="0 0 0 0 0 0 0 0 0 0 0 0 0 0 0 0 0 0 .4 0"/><feOffset dx="8.0" dy="8.0" in="blurOut2" result="blurOut3"/><feBlend in="SourceGraphic" in2="blurOut3" mode="normal"/></filter></defs><g><!--MD5=[f8e092794d52bf9a252466252ae7bd1c]
class System--><rect codeLine="4" fill="#FEFECE" filter="url(#f1ijj9heskkdzn)" height="395.6378" id="System" style="stroke:#A80036;stroke-width:3.0;" width="356" x="14" y="14"/><ellipse cx="142.5" cy="46" fill="#ADD1B2" rx="22" ry="22" style="stroke:#A80036;stroke-width:2.0;"/><path d="M141.4375,59.8438 Q137.9375,59.8438 135.6563,58.375 Q133.4063,56.875 132.2813,54.1875 Q131.1875,51.4688 131.1875,47.875 Q131.1875,43.8125 132.5,40.9063 Q133.8125,38 136.375,36.4375 Q138.9375,34.875 142.6875,34.875 Q144.4688,34.875 145.8125,35.25 Q147.1563,35.5938 148.5313,36.2813 L146.9063,40.3125 Q145.6563,39.6875 144.5625,39.4375 Q143.5,39.1875 142.5313,39.1875 Q140.1875,39.1875 138.7813,40.25 Q137.375,41.3125 136.7813,43.2188 Q136.1875,45.125 136.1875,47.6563 Q136.1875,51.6875 137.625,53.625 Q139.0625,55.5313 142.25,55.5313 Q143.4375,55.5313 144.6875,55.2188 Q145.9375,54.9063 147.5938,54.1563 L147.5938,58.5938 Q146.125,59.2188 144.5313,59.5313 Q142.9688,59.8438 141.4375,59.8438 Z " fill="#000000"/><text fill="#000000" font-family="sans-serif" font-size="24" lengthAdjust="spacing" textLength="82" x="183.5" y="55.3121">System</text><line style="stroke:#A80036;stroke-width:3.0;" x1="16" x2="368" y1="78" y2="78"/><rect fill="none" height="12" style="stroke:#C82930;stroke-width:2.0;" width="12" x="30" y="94"/><text fill="#000000" font-family="sans-serif" font-size="22" lengthAdjust="spacing" textLength="96" x="54" y="109.5178">cartridge</text><rect fill="none" height="12" style="stroke:#C82930;stroke-width:2.0;" width="12" x="30" y="123.9638"/><text fill="#000000" font-family="sans-serif" font-size="22" lengthAdjust="spacing" textLength="104" x="54" y="139.4816">controller</text><rect fill="none" height="12" style="stroke:#C82930;stroke-width:2.0;" width="12" x="30" y="153.9276"/><text fill="#000000" font-family="sans-serif" font-size="22" lengthAdjust="spacing" textLength="42" x="54" y="169.4454">ppu</text><rect fill="none" height="12" style="stroke:#C82930;stroke-width:2.0;" width="12" x="30" y="183.8913"/><text fill="#000000" font-family="sans-serif" font-size="22" lengthAdjust="spacing" textLength="38" x="54" y="199.4092">cpu</text><rect fill="none" height="12" style="stroke:#C82930;stroke-width:2.0;" width="12" x="30" y="213.8551"/><text fill="#000000" font-family="sans-serif" font-size="22" lengthAdjust="spacing" textLength="178" x="54" y="229.3729">cartridge_loaded</text><rect fill="none" height="12" style="stroke:#C82930;stroke-width:2.0;" width="12" x="30" y="243.8189"/><text fill="#000000" font-family="sans-serif" font-size="22" lengthAdjust="spacing" textLength="246" x="54" y="259.3367">system_cycles_executed</text><line style="stroke:#A80036;stroke-width:3.0;" x1="16" x2="368" y1="273.7827" y2="273.7827"/><ellipse cx="36" cy="295.7827" fill="#84BE84" rx="6" ry="6" style="stroke:#038048;stroke-width:2.0;"/><text fill="#000000" font-family="sans-serif" font-size="22" lengthAdjust="spacing" textLength="100" x="54" y="305.3005">boot_up()</text><ellipse cx="36" cy="325.7464" fill="#84BE84" rx="6" ry="6" style="stroke:#038048;stroke-width:2.0;"/><text fill="#000000" font-family="sans-serif" font-size="22" lengthAdjust="spacing" textLength="140" x="54" y="335.2643">run_console()</text><rect fill="#F24D5C" height="12" style="stroke:#C82930;stroke-width:2.0;" width="12" x="30" y="349.7102"/><text fill="#000000" font-family="sans-serif" font-size="22" lengthAdjust="spacing" textLength="278" x="54" y="365.228">prepare_system_for_start()</text><rect fill="#F24D5C" height="12" style="stroke:#C82930;stroke-width:2.0;" width="12" x="30" y="379.674"/><text fill="#000000" font-family="sans-serif" font-size="22" lengthAdjust="spacing" textLength="304" x="54" y="395.1918">perform_master_clock_cycle()</text><!--MD5=[d38e05979d2d2a11d864f9c8fc0179df]
@startuml system
scale 2
hide empty members

class System {
- cartridge
- controller
- ppu
- cpu
- cartridge_loaded
- system_cycles_executed

+ boot_up()
+ run_console()
- prepare_system_for_start()
- perform_master_clock_cycle()
}
@enduml

PlantUML version 1.2021.00(Sun Jan 10 11:25:05 CET 2021)
(MIT source distribution)
Java Runtime: OpenJDK Runtime Environment
JVM: OpenJDK 64-Bit Server VM
Default Encoding: UTF-8
Language: en
Country: US
--></g></svg>