<?xml version="1.0" encoding="UTF-8" standalone="no"?><svg xmlns="http://www.w3.org/2000/svg" xmlns:xlink="http://www.w3.org/1999/xlink" contentScriptType="application/ecmascript" contentStyleType="text/css" height="1036px" preserveAspectRatio="none" style="width:576px;height:1036px;" version="1.1" viewBox="0 0 576 1036" width="576px" zoomAndPan="magnify"><defs><filter height="300%" id="f10fmiu7g6zumh" width="300%" x="-1" y="-1"><feGaussianBlur result="blurOut" stdDeviation="4.0"/><feColorMatrix in="blurOut" result="blurOut2" type="matrix" values="0 0 0 0 0 0 0 0 0 0 0 0 0 0 0 0 0 0 .4 0"/><feOffset dx="8.0" dy="8.0" in="blurOut2" result="blurOut3"/><feBlend in="SourceGraphic" in2="blurOut3" mode="normal"/></filter></defs><g><!--MD5=[4945c737fad898a5ce312252f730d528]
class Renderer--><rect codeLine="4" fill="#FEFECE" filter="url(#f10fmiu7g6zumh)" height="994.9133" id="Renderer" style="stroke:#A80036;stroke-width:3.0;" width="534" x="14" y="14"/><ellipse cx="220.5" cy="46" fill="#ADD1B2" rx="22" ry="22" style="stroke:#A80036;stroke-width:2.0;"/><path d="M219.4375,59.8438 Q215.9375,59.8438 213.6563,58.375 Q211.4063,56.875 210.2813,54.1875 Q209.1875,51.4688 209.1875,47.875 Q209.1875,43.8125 210.5,40.9063 Q211.8125,38 214.375,36.4375 Q216.9375,34.875 220.6875,34.875 Q222.4688,34.875 223.8125,35.25 Q225.1563,35.5938 226.5313,36.2813 L224.9063,40.3125 Q223.6563,39.6875 222.5625,39.4375 Q221.5,39.1875 220.5313,39.1875 Q218.1875,39.1875 216.7813,40.25 Q215.375,41.3125 214.7813,43.2188 Q214.1875,45.125 214.1875,47.6563 Q214.1875,51.6875 215.625,53.625 Q217.0625,55.5313 220.25,55.5313 Q221.4375,55.5313 222.6875,55.2188 Q223.9375,54.9063 225.5938,54.1563 L225.5938,58.5938 Q224.125,59.2188 222.5313,59.5313 Q220.9688,59.8438 219.4375,59.8438 Z " fill="#000000"/><text fill="#000000" font-family="sans-serif" font-size="24" lengthAdjust="spacing" textLength="104" x="261.5" y="55.3121">Renderer</text><line style="stroke:#A80036;stroke-width:3.0;" x1="16" x2="546" y1="78" y2="78"/><rect fill="none" height="12" style="stroke:#C82930;stroke-width:2.0;" width="12" x="30" y="94"/><text fill="#000000" font-family="sans-serif" font-size="22" lengthAdjust="spacing" textLength="82" x="54" y="109.5178">ppu_ref</text><rect fill="none" height="12" style="stroke:#C82930;stroke-width:2.0;" width="12" x="30" y="123.9638"/><text fill="#000000" font-family="sans-serif" font-size="22" lengthAdjust="spacing" textLength="176" x="54" y="139.4816">rendering_mode</text><rect fill="none" height="12" style="stroke:#C82930;stroke-width:2.0;" width="12" x="30" y="153.9276"/><text fill="#000000" font-family="sans-serif" font-size="22" lengthAdjust="spacing" textLength="138" x="54" y="169.4454">frame_buffer</text><rect fill="none" height="12" style="stroke:#C82930;stroke-width:2.0;" width="12" x="30" y="183.8913"/><text fill="#000000" font-family="sans-serif" font-size="22" lengthAdjust="spacing" textLength="138" x="54" y="199.4092">current_cycle</text><rect fill="none" height="12" style="stroke:#C82930;stroke-width:2.0;" width="12" x="30" y="213.8551"/><text fill="#000000" font-family="sans-serif" font-size="22" lengthAdjust="spacing" textLength="182" x="54" y="229.3729">current_scanliner</text><rect fill="none" height="12" style="stroke:#C82930;stroke-width:2.0;" width="12" x="30" y="243.8189"/><text fill="#000000" font-family="sans-serif" font-size="22" lengthAdjust="spacing" textLength="296" x="54" y="259.3367">fetched_nametable_tile_byte</text><rect fill="none" height="12" style="stroke:#C82930;stroke-width:2.0;" width="12" x="30" y="273.7827"/><text fill="#000000" font-family="sans-serif" font-size="22" lengthAdjust="spacing" textLength="298" x="54" y="289.3005">fetched_attribute_table_byte</text><rect fill="none" height="12" style="stroke:#C82930;stroke-width:2.0;" width="12" x="30" y="303.7464"/><text fill="#000000" font-family="sans-serif" font-size="22" lengthAdjust="spacing" textLength="296" x="54" y="319.2643">fetched_tile_first_plane_byte</text><rect fill="none" height="12" style="stroke:#C82930;stroke-width:2.0;" width="12" x="30" y="333.7102"/><text fill="#000000" font-family="sans-serif" font-size="22" lengthAdjust="spacing" textLength="328" x="54" y="349.228">fetched_tile_second_plane_byte</text><rect fill="none" height="12" style="stroke:#C82930;stroke-width:2.0;" width="12" x="30" y="363.674"/><text fill="#000000" font-family="sans-serif" font-size="22" lengthAdjust="spacing" textLength="242" x="54" y="379.1918">tile_data_first_shift_reg</text><rect fill="none" height="12" style="stroke:#C82930;stroke-width:2.0;" width="12" x="30" y="393.6378"/><text fill="#000000" font-family="sans-serif" font-size="22" lengthAdjust="spacing" textLength="284" x="54" y="409.1556">tile_data_second_shift_regs</text><rect fill="none" height="12" style="stroke:#C82930;stroke-width:2.0;" width="12" x="30" y="423.6015"/><text fill="#000000" font-family="sans-serif" font-size="22" lengthAdjust="spacing" textLength="176" x="54" y="439.1194">data_multiplexer</text><line style="stroke:#A80036;stroke-width:3.0;" x1="16" x2="546" y1="453.5653" y2="453.5653"/><rect fill="#F24D5C" height="12" style="stroke:#C82930;stroke-width:2.0;" width="12" x="30" y="469.5653"/><text fill="#000000" font-family="sans-serif" font-size="22" lengthAdjust="spacing" textLength="212" x="54" y="485.0831">prepare_next_pixel()</text><rect fill="#F24D5C" height="12" style="stroke:#C82930;stroke-width:2.0;" width="12" x="30" y="499.5291"/><text fill="#000000" font-family="sans-serif" font-size="22" lengthAdjust="spacing" textLength="272" x="54" y="515.0469">choose_rendering_mode()</text><rect fill="#F24D5C" height="12" style="stroke:#C82930;stroke-width:2.0;" width="12" x="30" y="529.4929"/><text fill="#000000" font-family="sans-serif" font-size="22" lengthAdjust="spacing" textLength="286" x="54" y="545.0107">dispatch_rendering_mode()</text><rect fill="#F24D5C" height="12" style="stroke:#C82930;stroke-width:2.0;" width="12" x="30" y="559.4566"/><text fill="#000000" font-family="sans-serif" font-size="22" lengthAdjust="spacing" textLength="306" x="54" y="574.9745">render_pre_render_scanline()</text><rect fill="#F24D5C" height="12" style="stroke:#C82930;stroke-width:2.0;" width="12" x="30" y="589.4204"/><text fill="#000000" font-family="sans-serif" font-size="22" lengthAdjust="spacing" textLength="254" x="54" y="604.9382">render_visible_scanline()</text><rect fill="#F24D5C" height="12" style="stroke:#C82930;stroke-width:2.0;" width="12" x="30" y="619.3842"/><text fill="#000000" font-family="sans-serif" font-size="22" lengthAdjust="spacing" textLength="258" x="54" y="634.902">render_vblank_scanline()</text><rect fill="#F24D5C" height="12" style="stroke:#C82930;stroke-width:2.0;" width="12" x="30" y="649.348"/><text fill="#000000" font-family="sans-serif" font-size="22" lengthAdjust="spacing" textLength="268" x="54" y="664.8658">process_pixel_rendering()</text><rect fill="#F24D5C" height="12" style="stroke:#C82930;stroke-width:2.0;" width="12" x="30" y="679.3117"/><text fill="#000000" font-family="sans-serif" font-size="22" lengthAdjust="spacing" textLength="292" x="54" y="694.8296">process_rendering_fetches()</text><rect fill="#F24D5C" height="12" style="stroke:#C82930;stroke-width:2.0;" width="12" x="30" y="709.2755"/><text fill="#000000" font-family="sans-serif" font-size="22" lengthAdjust="spacing" textLength="482" x="54" y="724.7933">fetch_nametable_tile_byte_with_shifters_load()</text><rect fill="#F24D5C" height="12" style="stroke:#C82930;stroke-width:2.0;" width="12" x="30" y="739.2393"/><text fill="#000000" font-family="sans-serif" font-size="22" lengthAdjust="spacing" textLength="284" x="54" y="754.7571">fetch_attribute_table_byte()</text><rect fill="#F24D5C" height="12" style="stroke:#C82930;stroke-width:2.0;" width="12" x="30" y="769.2031"/><text fill="#000000" font-family="sans-serif" font-size="22" lengthAdjust="spacing" textLength="260" x="54" y="784.7209">calculate_attribute_shift()</text><rect fill="#F24D5C" height="12" style="stroke:#C82930;stroke-width:2.0;" width="12" x="30" y="799.1668"/><text fill="#000000" font-family="sans-serif" font-size="22" lengthAdjust="spacing" textLength="230" x="54" y="814.6847">fetch_tile_plane_byte()</text><rect fill="#F24D5C" height="12" style="stroke:#C82930;stroke-width:2.0;" width="12" x="30" y="829.1306"/><text fill="#000000" font-family="sans-serif" font-size="22" lengthAdjust="spacing" textLength="386" x="54" y="844.6484">coarse_x_increment_with_wrapping()</text><rect fill="#F24D5C" height="12" style="stroke:#C82930;stroke-width:2.0;" width="12" x="30" y="859.0944"/><text fill="#000000" font-family="sans-serif" font-size="22" lengthAdjust="spacing" textLength="386" x="54" y="874.6122">coarse_y_increment_with_wrapping()</text><rect fill="#F24D5C" height="12" style="stroke:#C82930;stroke-width:2.0;" width="12" x="30" y="889.0582"/><text fill="#000000" font-family="sans-serif" font-size="22" lengthAdjust="spacing" textLength="370" x="54" y="904.576">copy_horizontal_scroll_to_address()</text><rect fill="#F24D5C" height="12" style="stroke:#C82930;stroke-width:2.0;" width="12" x="30" y="919.0219"/><text fill="#000000" font-family="sans-serif" font-size="22" lengthAdjust="spacing" textLength="338" x="54" y="934.5398">copy_vertical_scroll_to_address()</text><rect fill="#F24D5C" height="12" style="stroke:#C82930;stroke-width:2.0;" width="12" x="30" y="948.9857"/><text fill="#000000" font-family="sans-serif" font-size="22" lengthAdjust="spacing" textLength="402" x="54" y="964.5035">load_next_tile_data_to_shift_registers()</text><rect fill="#F24D5C" height="12" style="stroke:#C82930;stroke-width:2.0;" width="12" x="30" y="978.9495"/><text fill="#000000" font-family="sans-serif" font-size="22" lengthAdjust="spacing" textLength="228" x="54" y="994.4673">move_shift_registers()</text><!--MD5=[201228fe0695dd47a175595e2ff81190]
@startuml renderer
scale 2
hide empty members

class Renderer {
- ppu_ref
- rendering_mode
- frame_buffer
- current_cycle
- current_scanliner
- fetched_nametable_tile_byte
- fetched_attribute_table_byte
- fetched_tile_first_plane_byte
- fetched_tile_second_plane_byte
- tile_data_first_shift_reg
- tile_data_second_shift_regs
- data_multiplexer

- prepare_next_pixel()
- choose_rendering_mode()
- dispatch_rendering_mode()
- render_pre_render_scanline()
- render_visible_scanline()
- render_vblank_scanline()
- process_pixel_rendering()
- process_rendering_fetches()
- fetch_nametable_tile_byte_with_shifters_load()
- fetch_attribute_table_byte()
- calculate_attribute_shift()
- fetch_tile_plane_byte()
- coarse_x_increment_with_wrapping()
- coarse_y_increment_with_wrapping()
- copy_horizontal_scroll_to_address()
- copy_vertical_scroll_to_address()
- load_next_tile_data_to_shift_registers()
- move_shift_registers()
}
@enduml

PlantUML version 1.2021.00(Sun Jan 10 11:25:05 CET 2021)
(MIT source distribution)
Java Runtime: OpenJDK Runtime Environment
JVM: OpenJDK 64-Bit Server VM
Default Encoding: UTF-8
Language: en
Country: US
--></g></svg>