<?xml version="1.0" encoding="UTF-8" standalone="no"?><svg xmlns="http://www.w3.org/2000/svg" xmlns:xlink="http://www.w3.org/1999/xlink" contentScriptType="application/ecmascript" contentStyleType="text/css" height="1218px" preserveAspectRatio="none" style="width:594px;height:1218px;" version="1.1" viewBox="0 0 594 1218" width="594px" zoomAndPan="magnify"><defs><filter height="300%" id="f10ijwurct5jwk" width="300%" x="-1" y="-1"><feGaussianBlur result="blurOut" stdDeviation="4.0"/><feColorMatrix in="blurOut" result="blurOut2" type="matrix" values="0 0 0 0 0 0 0 0 0 0 0 0 0 0 0 0 0 0 .4 0"/><feOffset dx="8.0" dy="8.0" in="blurOut2" result="blurOut3"/><feBlend in="SourceGraphic" in2="blurOut3" mode="normal"/></filter></defs><g><!--MD5=[f8e092794d52bf9a252466252ae7bd1c]
class System--><rect codeLine="3" fill="#FEFECE" filter="url(#f10ijwurct5jwk)" height="96" id="System" style="stroke:#A80036;stroke-width:3.0;" width="146" x="348" y="14"/><ellipse cx="378" cy="46" fill="#ADD1B2" rx="22" ry="22" style="stroke:#A80036;stroke-width:2.0;"/><path d="M376.9375,59.8438 Q373.4375,59.8438 371.1563,58.375 Q368.9063,56.875 367.7813,54.1875 Q366.6875,51.4688 366.6875,47.875 Q366.6875,43.8125 368,40.9063 Q369.3125,38 371.875,36.4375 Q374.4375,34.875 378.1875,34.875 Q379.9688,34.875 381.3125,35.25 Q382.6563,35.5938 384.0313,36.2813 L382.4063,40.3125 Q381.1563,39.6875 380.0625,39.4375 Q379,39.1875 378.0313,39.1875 Q375.6875,39.1875 374.2813,40.25 Q372.875,41.3125 372.2813,43.2188 Q371.6875,45.125 371.6875,47.6563 Q371.6875,51.6875 373.125,53.625 Q374.5625,55.5313 377.75,55.5313 Q378.9375,55.5313 380.1875,55.2188 Q381.4375,54.9063 383.0938,54.1563 L383.0938,58.5938 Q381.625,59.2188 380.0313,59.5313 Q378.4688,59.8438 376.9375,59.8438 Z " fill="#000000"/><text fill="#000000" font-family="sans-serif" font-size="24" lengthAdjust="spacing" textLength="82" x="406" y="55.3121">System</text><line style="stroke:#A80036;stroke-width:3.0;" x1="350" x2="492" y1="78" y2="78"/><line style="stroke:#A80036;stroke-width:3.0;" x1="350" x2="492" y1="94" y2="94"/><!--MD5=[1d7c5a491d68c757d98f4015f46ff360]
class CPU--><rect codeLine="5" fill="#FEFECE" filter="url(#f10ijwurct5jwk)" height="96" id="CPU" style="stroke:#A80036;stroke-width:3.0;" width="112" x="175" y="230"/><ellipse cx="205" cy="262" fill="#ADD1B2" rx="22" ry="22" style="stroke:#A80036;stroke-width:2.0;"/><path d="M203.9375,275.8438 Q200.4375,275.8438 198.1563,274.375 Q195.9063,272.875 194.7813,270.1875 Q193.6875,267.4688 193.6875,263.875 Q193.6875,259.8125 195,256.9063 Q196.3125,254 198.875,252.4375 Q201.4375,250.875 205.1875,250.875 Q206.9688,250.875 208.3125,251.25 Q209.6563,251.5938 211.0313,252.2813 L209.4063,256.3125 Q208.1563,255.6875 207.0625,255.4375 Q206,255.1875 205.0313,255.1875 Q202.6875,255.1875 201.2813,256.25 Q199.875,257.3125 199.2813,259.2188 Q198.6875,261.125 198.6875,263.6563 Q198.6875,267.6875 200.125,269.625 Q201.5625,271.5313 204.75,271.5313 Q205.9375,271.5313 207.1875,271.2188 Q208.4375,270.9063 210.0938,270.1563 L210.0938,274.5938 Q208.625,275.2188 207.0313,275.5313 Q205.4688,275.8438 203.9375,275.8438 Z " fill="#000000"/><text fill="#000000" font-family="sans-serif" font-size="24" lengthAdjust="spacing" textLength="48" x="233" y="271.3121">CPU</text><line style="stroke:#A80036;stroke-width:3.0;" x1="177" x2="285" y1="294" y2="294"/><line style="stroke:#A80036;stroke-width:3.0;" x1="177" x2="285" y1="310" y2="310"/><!--MD5=[a333ef3886df6cf37a2df872d989ef91]
class CPUBus--><rect codeLine="6" fill="#FEFECE" filter="url(#f10ijwurct5jwk)" height="96" id="CPUBus" style="stroke:#A80036;stroke-width:3.0;" width="154" x="14" y="662"/><ellipse cx="44" cy="694" fill="#ADD1B2" rx="22" ry="22" style="stroke:#A80036;stroke-width:2.0;"/><path d="M42.9375,707.8438 Q39.4375,707.8438 37.1563,706.375 Q34.9063,704.875 33.7813,702.1875 Q32.6875,699.4688 32.6875,695.875 Q32.6875,691.8125 34,688.9063 Q35.3125,686 37.875,684.4375 Q40.4375,682.875 44.1875,682.875 Q45.9688,682.875 47.3125,683.25 Q48.6563,683.5938 50.0313,684.2813 L48.4063,688.3125 Q47.1563,687.6875 46.0625,687.4375 Q45,687.1875 44.0313,687.1875 Q41.6875,687.1875 40.2813,688.25 Q38.875,689.3125 38.2813,691.2188 Q37.6875,693.125 37.6875,695.6563 Q37.6875,699.6875 39.125,701.625 Q40.5625,703.5313 43.75,703.5313 Q44.9375,703.5313 46.1875,703.2188 Q47.4375,702.9063 49.0938,702.1563 L49.0938,706.5938 Q47.625,707.2188 46.0313,707.5313 Q44.4688,707.8438 42.9375,707.8438 Z " fill="#000000"/><text fill="#000000" font-family="sans-serif" font-size="24" lengthAdjust="spacing" textLength="90" x="72" y="703.3121">CPUBus</text><line style="stroke:#A80036;stroke-width:3.0;" x1="16" x2="166" y1="726" y2="726"/><line style="stroke:#A80036;stroke-width:3.0;" x1="16" x2="166" y1="742" y2="742"/><!--MD5=[818ce9cd1eb68477d70117a0a20ac581]
class Instruction--><rect codeLine="7" fill="#FEFECE" filter="url(#f10ijwurct5jwk)" height="96" id="Instruction" style="stroke:#A80036;stroke-width:3.0;" width="184" x="111" y="446"/><ellipse cx="141" cy="478" fill="#ADD1B2" rx="22" ry="22" style="stroke:#A80036;stroke-width:2.0;"/><path d="M139.9375,491.8438 Q136.4375,491.8438 134.1563,490.375 Q131.9063,488.875 130.7813,486.1875 Q129.6875,483.4688 129.6875,479.875 Q129.6875,475.8125 131,472.9063 Q132.3125,470 134.875,468.4375 Q137.4375,466.875 141.1875,466.875 Q142.9688,466.875 144.3125,467.25 Q145.6563,467.5938 147.0313,468.2813 L145.4063,472.3125 Q144.1563,471.6875 143.0625,471.4375 Q142,471.1875 141.0313,471.1875 Q138.6875,471.1875 137.2813,472.25 Q135.875,473.3125 135.2813,475.2188 Q134.6875,477.125 134.6875,479.6563 Q134.6875,483.6875 136.125,485.625 Q137.5625,487.5313 140.75,487.5313 Q141.9375,487.5313 143.1875,487.2188 Q144.4375,486.9063 146.0938,486.1563 L146.0938,490.5938 Q144.625,491.2188 143.0313,491.5313 Q141.4688,491.8438 139.9375,491.8438 Z " fill="#000000"/><text fill="#000000" font-family="sans-serif" font-size="24" lengthAdjust="spacing" textLength="120" x="169" y="487.3121">Instruction</text><line style="stroke:#A80036;stroke-width:3.0;" x1="113" x2="293" y1="510" y2="510"/><line style="stroke:#A80036;stroke-width:3.0;" x1="113" x2="293" y1="526" y2="526"/><!--MD5=[a49dd864a3ee26e9fa19420ec95892e7]
class PPU--><rect codeLine="9" fill="#FEFECE" filter="url(#f10ijwurct5jwk)" height="96" id="PPU" style="stroke:#A80036;stroke-width:3.0;" width="110" x="366" y="446"/><ellipse cx="396" cy="478" fill="#ADD1B2" rx="22" ry="22" style="stroke:#A80036;stroke-width:2.0;"/><path d="M394.9375,491.8438 Q391.4375,491.8438 389.1563,490.375 Q386.9063,488.875 385.7813,486.1875 Q384.6875,483.4688 384.6875,479.875 Q384.6875,475.8125 386,472.9063 Q387.3125,470 389.875,468.4375 Q392.4375,466.875 396.1875,466.875 Q397.9688,466.875 399.3125,467.25 Q400.6563,467.5938 402.0313,468.2813 L400.4063,472.3125 Q399.1563,471.6875 398.0625,471.4375 Q397,471.1875 396.0313,471.1875 Q393.6875,471.1875 392.2813,472.25 Q390.875,473.3125 390.2813,475.2188 Q389.6875,477.125 389.6875,479.6563 Q389.6875,483.6875 391.125,485.625 Q392.5625,487.5313 395.75,487.5313 Q396.9375,487.5313 398.1875,487.2188 Q399.4375,486.9063 401.0938,486.1563 L401.0938,490.5938 Q399.625,491.2188 398.0313,491.5313 Q396.4688,491.8438 394.9375,491.8438 Z " fill="#000000"/><text fill="#000000" font-family="sans-serif" font-size="24" lengthAdjust="spacing" textLength="46" x="424" y="487.3121">PPU</text><line style="stroke:#A80036;stroke-width:3.0;" x1="368" x2="474" y1="510" y2="510"/><line style="stroke:#A80036;stroke-width:3.0;" x1="368" x2="474" y1="526" y2="526"/><!--MD5=[39059a76a0921463cceac64ac57893ba]
class PPUBus--><rect codeLine="10" fill="#FEFECE" filter="url(#f10ijwurct5jwk)" height="96" id="PPUBus" style="stroke:#A80036;stroke-width:3.0;" width="152" x="325" y="662"/><ellipse cx="355" cy="694" fill="#ADD1B2" rx="22" ry="22" style="stroke:#A80036;stroke-width:2.0;"/><path d="M353.9375,707.8438 Q350.4375,707.8438 348.1563,706.375 Q345.9063,704.875 344.7813,702.1875 Q343.6875,699.4688 343.6875,695.875 Q343.6875,691.8125 345,688.9063 Q346.3125,686 348.875,684.4375 Q351.4375,682.875 355.1875,682.875 Q356.9688,682.875 358.3125,683.25 Q359.6563,683.5938 361.0313,684.2813 L359.4063,688.3125 Q358.1563,687.6875 357.0625,687.4375 Q356,687.1875 355.0313,687.1875 Q352.6875,687.1875 351.2813,688.25 Q349.875,689.3125 349.2813,691.2188 Q348.6875,693.125 348.6875,695.6563 Q348.6875,699.6875 350.125,701.625 Q351.5625,703.5313 354.75,703.5313 Q355.9375,703.5313 357.1875,703.2188 Q358.4375,702.9063 360.0938,702.1563 L360.0938,706.5938 Q358.625,707.2188 357.0313,707.5313 Q355.4688,707.8438 353.9375,707.8438 Z " fill="#000000"/><text fill="#000000" font-family="sans-serif" font-size="24" lengthAdjust="spacing" textLength="88" x="383" y="703.3121">PPUBus</text><line style="stroke:#A80036;stroke-width:3.0;" x1="327" x2="475" y1="726" y2="726"/><line style="stroke:#A80036;stroke-width:3.0;" x1="327" x2="475" y1="742" y2="742"/><!--MD5=[de894fcfecf00f9dbd2de788d1f11225]
class Cartridge--><rect codeLine="12" fill="#FEFECE" filter="url(#f10ijwurct5jwk)" height="96" id="Cartridge" style="stroke:#A80036;stroke-width:3.0;" width="170" x="316" y="878"/><ellipse cx="346" cy="910" fill="#ADD1B2" rx="22" ry="22" style="stroke:#A80036;stroke-width:2.0;"/><path d="M344.9375,923.8438 Q341.4375,923.8438 339.1563,922.375 Q336.9063,920.875 335.7813,918.1875 Q334.6875,915.4688 334.6875,911.875 Q334.6875,907.8125 336,904.9063 Q337.3125,902 339.875,900.4375 Q342.4375,898.875 346.1875,898.875 Q347.9688,898.875 349.3125,899.25 Q350.6563,899.5938 352.0313,900.2813 L350.4063,904.3125 Q349.1563,903.6875 348.0625,903.4375 Q347,903.1875 346.0313,903.1875 Q343.6875,903.1875 342.2813,904.25 Q340.875,905.3125 340.2813,907.2188 Q339.6875,909.125 339.6875,911.6563 Q339.6875,915.6875 341.125,917.625 Q342.5625,919.5313 345.75,919.5313 Q346.9375,919.5313 348.1875,919.2188 Q349.4375,918.9063 351.0938,918.1563 L351.0938,922.5938 Q349.625,923.2188 348.0313,923.5313 Q346.4688,923.8438 344.9375,923.8438 Z " fill="#000000"/><text fill="#000000" font-family="sans-serif" font-size="24" lengthAdjust="spacing" textLength="106" x="374" y="919.3121">Cartridge</text><line style="stroke:#A80036;stroke-width:3.0;" x1="318" x2="484" y1="942" y2="942"/><line style="stroke:#A80036;stroke-width:3.0;" x1="318" x2="484" y1="958" y2="958"/><!--MD5=[17e1c1a0a8219605fa597c0a44bc2e80]
class MapperNROM--><rect codeLine="13" fill="#FEFECE" filter="url(#f10ijwurct5jwk)" height="96" id="MapperNROM" style="stroke:#A80036;stroke-width:3.0;" width="224" x="289" y="1094"/><ellipse cx="319" cy="1126" fill="#ADD1B2" rx="22" ry="22" style="stroke:#A80036;stroke-width:2.0;"/><path d="M317.9375,1139.8438 Q314.4375,1139.8438 312.1563,1138.375 Q309.9063,1136.875 308.7813,1134.1875 Q307.6875,1131.4688 307.6875,1127.875 Q307.6875,1123.8125 309,1120.9063 Q310.3125,1118 312.875,1116.4375 Q315.4375,1114.875 319.1875,1114.875 Q320.9688,1114.875 322.3125,1115.25 Q323.6563,1115.5938 325.0313,1116.2813 L323.4063,1120.3125 Q322.1563,1119.6875 321.0625,1119.4375 Q320,1119.1875 319.0313,1119.1875 Q316.6875,1119.1875 315.2813,1120.25 Q313.875,1121.3125 313.2813,1123.2188 Q312.6875,1125.125 312.6875,1127.6563 Q312.6875,1131.6875 314.125,1133.625 Q315.5625,1135.5313 318.75,1135.5313 Q319.9375,1135.5313 321.1875,1135.2188 Q322.4375,1134.9063 324.0938,1134.1563 L324.0938,1138.5938 Q322.625,1139.2188 321.0313,1139.5313 Q319.4688,1139.8438 317.9375,1139.8438 Z " fill="#000000"/><text fill="#000000" font-family="sans-serif" font-size="24" lengthAdjust="spacing" textLength="160" x="347" y="1135.3121">MapperNROM</text><line style="stroke:#A80036;stroke-width:3.0;" x1="291" x2="511" y1="1158" y2="1158"/><line style="stroke:#A80036;stroke-width:3.0;" x1="291" x2="511" y1="1174" y2="1174"/><!--MD5=[dc934a07216ef01441cebebc83705d59]
reverse link System to CPU--><path codeLine="16" d="M360.4,131.62 C331.78,163.56 298.32,200.88 272.6,229.58 " fill="none" id="System-backto-CPU" style="stroke:#A80036;stroke-width:2.0;"/><polygon fill="#A80036" points="377.28,112.78,363.3099,116.3626,361.2438,130.6361,375.2139,127.0534,377.28,112.78" style="stroke:#A80036;stroke-width:2.0;"/><!--MD5=[cf83f15cf4c9c78c8f3e01b325a89f4f]
reverse link System to PPU--><path codeLine="17" d="M421,139.4 C421,227.88 421,371.82 421,445.44 " fill="none" id="System-backto-PPU" style="stroke:#A80036;stroke-width:2.0;"/><polygon fill="#A80036" points="421,113.64,413,125.64,421,137.64,429,125.64,421,113.64" style="stroke:#A80036;stroke-width:2.0;"/><!--MD5=[2353663247ee01f1e42bce075d923c44]
reverse link System to Cartridge--><path codeLine="18" d="M450.62,137.14 C498.26,265.54 580.08,538.64 513,758 C499.38,802.54 469.32,845.94 443.78,877.18 " fill="none" id="System-backto-Cartridge" style="stroke:#A80036;stroke-width:2.0;"/><polygon fill="#A80036" points="441.56,113.42,438.3533,127.4812,450.0995,135.8494,453.3062,121.7882,441.56,113.42" style="stroke:#A80036;stroke-width:2.0;"/><!--MD5=[e12e6d96017279ee018bea5f29514bb5]
reverse link CPU to CPUBus--><path codeLine="20" d="M152.48,340.74 C122.22,369.06 91.06,405.46 75,446 C46.8,517.18 62.5,607.76 76.64,661.64 " fill="none" id="CPU-backto-CPUBus" style="stroke:#A80036;stroke-width:2.0;"/><polygon fill="#A80036" points="171.88,323.62,157.591,325.5753,153.9001,339.5172,168.1891,337.5619,171.88,323.62" style="stroke:#A80036;stroke-width:2.0;"/><!--MD5=[0f9976128e9ee7d497bb336edef72f8c]
reverse link CPU to Instruction--><path codeLine="21" d="M221.08,355.08 C217.1,385.26 212.62,419.1 209.14,445.58 " fill="none" id="CPU-backto-Instruction" style="stroke:#A80036;stroke-width:2.0;"/><polygon fill="#A80036" points="224.46,329.52,214.9474,340.3602,221.295,353.3104,230.8076,342.4702,224.46,329.52" style="stroke:#A80036;stroke-width:2.0;"/><!--MD5=[0e954d6c13df801d3c8393e5b2bc8228]
reverse link CPU to PPU--><path codeLine="22" d="M291.6,347.62 C320.22,379.56 353.68,416.88 379.4,445.58 " fill="none" id="CPU-backto-PPU" style="stroke:#A80036;stroke-width:2.0;"/><polygon fill="#FFFFFF" points="274.72,328.78,276.7861,343.0534,290.7562,346.6361,288.6901,332.3626,274.72,328.78" style="stroke:#A80036;stroke-width:2.0;"/><!--MD5=[b496dfb26f76a234890164c09fb31b0c]
reverse link CPUBus to Cartridge--><path codeLine="23" d="M182.44,774.54 C230.52,807.4 288.46,847.04 332.6,877.22 " fill="none" id="CPUBus-backto-Cartridge" style="stroke:#A80036;stroke-width:2.0;"/><polygon fill="#FFFFFF" points="161.52,760.24,166.9164,773.6145,181.3377,773.7773,175.9413,760.4027,161.52,760.24" style="stroke:#A80036;stroke-width:2.0;"/><!--MD5=[1d24fc50f2f6e8b5fab47bcaa4cecbd6]
reverse link PPU to PPUBus--><path codeLine="25" d="M413.92,571.08 C411.08,601.26 407.88,635.1 405.38,661.58 " fill="none" id="PPU-backto-PPUBus" style="stroke:#A80036;stroke-width:2.0;"/><polygon fill="#A80036" points="416.32,545.54,407.2218,556.7303,414.052,569.4326,423.1502,558.2423,416.32,545.54" style="stroke:#A80036;stroke-width:2.0;"/><!--MD5=[7bd11ec0c658427499bdf8100cffb6f3]
reverse link PPUBus to Cartridge--><path codeLine="26" d="M401,787.08 C401,817.26 401,851.1 401,877.58 " fill="none" id="PPUBus-backto-Cartridge" style="stroke:#A80036;stroke-width:2.0;"/><polygon fill="#FFFFFF" points="401,761.56,393,773.56,401,785.56,409,773.56,401,761.56" style="stroke:#A80036;stroke-width:2.0;"/><!--MD5=[618e77a4f0811745c464e3d98fc8fbd9]
reverse link Cartridge to MapperNROM--><path codeLine="28" d="M401,1003.08 C401,1033.26 401,1067.1 401,1093.58 " fill="none" id="Cartridge-backto-MapperNROM" style="stroke:#A80036;stroke-width:2.0;"/><polygon fill="#A80036" points="401,977.56,393,989.56,401,1001.56,409,989.56,401,977.56" style="stroke:#A80036;stroke-width:2.0;"/><!--MD5=[e039f7e2ea9e621b63078dcb51224324]
@startuml system_overview
scale 2

class System

class CPU
class CPUBus
class Instruction

class PPU
class PPUBus

class Cartridge
class MapperNROM


System *- - CPU
System *- - PPU
System *- - Cartridge

CPU *- - CPUBus
CPU *- - Instruction
CPU o- - PPU
CPUBus o- - Cartridge

PPU *- - PPUBus
PPUBus o- - Cartridge

Cartridge *- - MapperNROM
@enduml

PlantUML version 1.2021.00(Sun Jan 10 11:25:05 CET 2021)
(MIT source distribution)
Java Runtime: OpenJDK Runtime Environment
JVM: OpenJDK 64-Bit Server VM
Default Encoding: UTF-8
Language: en
Country: US
--></g></svg>