<?xml version="1.0" encoding="UTF-8" standalone="no"?><svg xmlns="http://www.w3.org/2000/svg" xmlns:xlink="http://www.w3.org/1999/xlink" contentScriptType="application/ecmascript" contentStyleType="text/css" height="556px" preserveAspectRatio="none" style="width:424px;height:556px;" version="1.1" viewBox="0 0 424 556" width="424px" zoomAndPan="magnify"><defs><filter height="300%" id="fq0idjlydamem" width="300%" x="-1" y="-1"><feGaussianBlur result="blurOut" stdDeviation="4.0"/><feColorMatrix in="blurOut" result="blurOut2" type="matrix" values="0 0 0 0 0 0 0 0 0 0 0 0 0 0 0 0 0 0 .4 0"/><feOffset dx="8.0" dy="8.0" in="blurOut2" result="blurOut3"/><feBlend in="SourceGraphic" in2="blurOut3" mode="normal"/></filter></defs><g><!--MD5=[de894fcfecf00f9dbd2de788d1f11225]
class Cartridge--><rect codeLine="4" fill="#FEFECE" filter="url(#fq0idjlydamem)" height="515.4929" id="Cartridge" style="stroke:#A80036;stroke-width:3.0;" width="382" x="14" y="14"/><ellipse cx="143.5" cy="46" fill="#ADD1B2" rx="22" ry="22" style="stroke:#A80036;stroke-width:2.0;"/><path d="M142.4375,59.8438 Q138.9375,59.8438 136.6563,58.375 Q134.4063,56.875 133.2813,54.1875 Q132.1875,51.4688 132.1875,47.875 Q132.1875,43.8125 133.5,40.9063 Q134.8125,38 137.375,36.4375 Q139.9375,34.875 143.6875,34.875 Q145.4688,34.875 146.8125,35.25 Q148.1563,35.5938 149.5313,36.2813 L147.9063,40.3125 Q146.6563,39.6875 145.5625,39.4375 Q144.5,39.1875 143.5313,39.1875 Q141.1875,39.1875 139.7813,40.25 Q138.375,41.3125 137.7813,43.2188 Q137.1875,45.125 137.1875,47.6563 Q137.1875,51.6875 138.625,53.625 Q140.0625,55.5313 143.25,55.5313 Q144.4375,55.5313 145.6875,55.2188 Q146.9375,54.9063 148.5938,54.1563 L148.5938,58.5938 Q147.125,59.2188 145.5313,59.5313 Q143.9688,59.8438 142.4375,59.8438 Z " fill="#000000"/><text fill="#000000" font-family="sans-serif" font-size="24" lengthAdjust="spacing" textLength="106" x="184.5" y="55.3121">Cartridge</text><line style="stroke:#A80036;stroke-width:3.0;" x1="16" x2="394" y1="78" y2="78"/><ellipse cx="36" cy="100" fill="none" rx="6" ry="6" style="stroke:#038048;stroke-width:2.0;"/><text fill="#000000" font-family="sans-serif" font-size="22" lengthAdjust="spacing" textLength="82" x="54" y="109.5178">mapper</text><ellipse cx="36" cy="129.9638" fill="none" rx="6" ry="6" style="stroke:#038048;stroke-width:2.0;"/><text fill="#000000" font-family="sans-serif" font-size="22" lengthAdjust="spacing" textLength="174" x="54" y="139.4816">mirroring_mode</text><rect fill="none" height="12" style="stroke:#C82930;stroke-width:2.0;" width="12" x="30" y="153.9276"/><text fill="#000000" font-family="sans-serif" font-size="22" lengthAdjust="spacing" textLength="168" x="54" y="169.4454">cartridge_dump</text><rect fill="none" height="12" style="stroke:#C82930;stroke-width:2.0;" width="12" x="30" y="183.8913"/><text fill="#000000" font-family="sans-serif" font-size="22" lengthAdjust="spacing" textLength="74" x="54" y="199.4092">header</text><rect fill="none" height="12" style="stroke:#C82930;stroke-width:2.0;" width="12" x="30" y="213.8551"/><text fill="#000000" font-family="sans-serif" font-size="22" lengthAdjust="spacing" textLength="200" x="54" y="229.3729">current_mapper_id</text><line style="stroke:#A80036;stroke-width:3.0;" x1="16" x2="394" y1="243.8189" y2="243.8189"/><ellipse cx="36" cy="265.8189" fill="#84BE84" rx="6" ry="6" style="stroke:#038048;stroke-width:2.0;"/><text fill="#000000" font-family="sans-serif" font-size="22" lengthAdjust="spacing" textLength="164" x="54" y="275.3367">load_cartridge()</text><ellipse cx="36" cy="295.7827" fill="#84BE84" rx="6" ry="6" style="stroke:#038048;stroke-width:2.0;"/><text fill="#000000" font-family="sans-serif" font-size="22" lengthAdjust="spacing" textLength="308" x="54" y="305.3005">dump_cartridge_into_vector()</text><ellipse cx="36" cy="325.7464" fill="#84BE84" rx="6" ry="6" style="stroke:#038048;stroke-width:2.0;"/><text fill="#000000" font-family="sans-serif" font-size="22" lengthAdjust="spacing" textLength="172" x="54" y="335.2643">decode_header()</text><rect fill="#F24D5C" height="12" style="stroke:#C82930;stroke-width:2.0;" width="12" x="30" y="349.7102"/><text fill="#000000" font-family="sans-serif" font-size="22" lengthAdjust="spacing" textLength="330" x="54" y="365.228">check_for_nes_logo_in_header()</text><rect fill="#F24D5C" height="12" style="stroke:#C82930;stroke-width:2.0;" width="12" x="30" y="379.674"/><text fill="#000000" font-family="sans-serif" font-size="22" lengthAdjust="spacing" textLength="296" x="54" y="395.1918">check_for_mirroring_mode()</text><rect fill="#F24D5C" height="12" style="stroke:#C82930;stroke-width:2.0;" width="12" x="30" y="409.6378"/><text fill="#000000" font-family="sans-serif" font-size="22" lengthAdjust="spacing" textLength="316" x="54" y="425.1556">check_for_prg_ram_presence()</text><rect fill="#F24D5C" height="12" style="stroke:#C82930;stroke-width:2.0;" width="12" x="30" y="439.6015"/><text fill="#000000" font-family="sans-serif" font-size="22" lengthAdjust="spacing" textLength="298" x="54" y="455.1194">check_for_trainer_presence()</text><rect fill="#F24D5C" height="12" style="stroke:#C82930;stroke-width:2.0;" width="12" x="30" y="469.5653"/><text fill="#000000" font-family="sans-serif" font-size="22" lengthAdjust="spacing" textLength="328" x="54" y="485.0831">check_for_ignoring_mirroring()</text><rect fill="#F24D5C" height="12" style="stroke:#C82930;stroke-width:2.0;" width="12" x="30" y="499.5291"/><text fill="#000000" font-family="sans-serif" font-size="22" lengthAdjust="spacing" textLength="224" x="54" y="515.0469">calculate_mapper_id()</text><!--MD5=[8b0fcc636358cbddc2ca75f88bf1e4f8]
@startuml cartridge
scale 2
hide empty members

class Cartridge {
+ mapper
+ mirroring_mode
- cartridge_dump
- header
- current_mapper_id

+ load_cartridge()
+ dump_cartridge_into_vector()
+ decode_header()
- check_for_nes_logo_in_header()
- check_for_mirroring_mode()
- check_for_prg_ram_presence()
- check_for_trainer_presence()
- check_for_ignoring_mirroring()
- calculate_mapper_id()
}
@enduml

PlantUML version 1.2021.00(Sun Jan 10 11:25:05 CET 2021)
(MIT source distribution)
Java Runtime: OpenJDK Runtime Environment
JVM: OpenJDK 64-Bit Server VM
Default Encoding: UTF-8
Language: en
Country: US
--></g></svg>