<?xml version="1.0" encoding="UTF-8" standalone="no"?><svg xmlns="http://www.w3.org/2000/svg" xmlns:xlink="http://www.w3.org/1999/xlink" contentScriptType="application/ecmascript" contentStyleType="text/css" height="256px" preserveAspectRatio="none" style="width:302px;height:256px;" version="1.1" viewBox="0 0 302 256" width="302px" zoomAndPan="magnify"><defs><filter height="300%" id="f1y0v0hwtntx4l" width="300%" x="-1" y="-1"><feGaussianBlur result="blurOut" stdDeviation="4.0"/><feColorMatrix in="blurOut" result="blurOut2" type="matrix" values="0 0 0 0 0 0 0 0 0 0 0 0 0 0 0 0 0 0 .4 0"/><feOffset dx="8.0" dy="8.0" in="blurOut2" result="blurOut3"/><feBlend in="SourceGraphic" in2="blurOut3" mode="normal"/></filter></defs><g><!--MD5=[1d7ba1c7002d54515419844fbd155368]
class Controller--><rect codeLine="4" fill="#FEFECE" filter="url(#f1y0v0hwtntx4l)" height="215.8551" id="Controller" style="stroke:#A80036;stroke-width:3.0;" width="260" x="14" y="14"/><ellipse cx="81.8" cy="46" fill="#ADD1B2" rx="22" ry="22" style="stroke:#A80036;stroke-width:2.0;"/><path d="M80.7375,59.8438 Q77.2375,59.8438 74.9563,58.375 Q72.7063,56.875 71.5813,54.1875 Q70.4875,51.4688 70.4875,47.875 Q70.4875,43.8125 71.8,40.9063 Q73.1125,38 75.675,36.4375 Q78.2375,34.875 81.9875,34.875 Q83.7688,34.875 85.1125,35.25 Q86.4563,35.5938 87.8313,36.2813 L86.2063,40.3125 Q84.9563,39.6875 83.8625,39.4375 Q82.8,39.1875 81.8313,39.1875 Q79.4875,39.1875 78.0813,40.25 Q76.675,41.3125 76.0813,43.2188 Q75.4875,45.125 75.4875,47.6563 Q75.4875,51.6875 76.925,53.625 Q78.3625,55.5313 81.55,55.5313 Q82.7375,55.5313 83.9875,55.2188 Q85.2375,54.9063 86.8938,54.1563 L86.8938,58.5938 Q85.425,59.2188 83.8313,59.5313 Q82.2688,59.8438 80.7375,59.8438 Z " fill="#000000"/><text fill="#000000" font-family="sans-serif" font-size="24" lengthAdjust="spacing" textLength="112" x="118.2" y="55.3121">Controller</text><line style="stroke:#A80036;stroke-width:3.0;" x1="16" x2="272" y1="78" y2="78"/><rect fill="none" height="12" style="stroke:#C82930;stroke-width:2.0;" width="12" x="30" y="94"/><text fill="#000000" font-family="sans-serif" font-size="22" lengthAdjust="spacing" textLength="68" x="54" y="109.5178">strobe</text><rect fill="none" height="12" style="stroke:#C82930;stroke-width:2.0;" width="12" x="30" y="123.9638"/><text fill="#000000" font-family="sans-serif" font-size="22" lengthAdjust="spacing" textLength="142" x="54" y="139.4816">buttons_state</text><line style="stroke:#A80036;stroke-width:3.0;" x1="16" x2="272" y1="153.9276" y2="153.9276"/><ellipse cx="36" cy="175.9276" fill="#84BE84" rx="6" ry="6" style="stroke:#038048;stroke-width:2.0;"/><text fill="#000000" font-family="sans-serif" font-size="22" lengthAdjust="spacing" textLength="208" x="54" y="185.4454">handle_state_write()</text><ellipse cx="36" cy="205.8913" fill="#84BE84" rx="6" ry="6" style="stroke:#038048;stroke-width:2.0;"/><text fill="#000000" font-family="sans-serif" font-size="22" lengthAdjust="spacing" textLength="202" x="54" y="215.4092">handle_state_read()</text><!--MD5=[967b521b571d702204c4908e29060c9a]
@startuml controller
scale 2
hide empty members

class Controller {
- strobe
- buttons_state

+ handle_state_write()
+ handle_state_read()
}
@enduml

PlantUML version 1.2021.00(Sun Jan 10 11:25:05 CET 2021)
(MIT source distribution)
Java Runtime: OpenJDK Runtime Environment
JVM: OpenJDK 64-Bit Server VM
Default Encoding: UTF-8
Language: en
Country: US
--></g></svg>