<?xml version="1.0" encoding="UTF-8" standalone="no"?><svg xmlns="http://www.w3.org/2000/svg" xmlns:xlink="http://www.w3.org/1999/xlink" contentScriptType="application/ecmascript" contentStyleType="text/css" height="270px" preserveAspectRatio="none" style="width:280px;height:270px;" version="1.1" viewBox="0 0 280 270" width="280px" zoomAndPan="magnify"><defs><filter height="300%" id="fpdnm6c4rh97o" width="300%" x="-1" y="-1"><feGaussianBlur result="blurOut" stdDeviation="4.0"/><feColorMatrix in="blurOut" result="blurOut2" type="matrix" values="0 0 0 0 0 0 0 0 0 0 0 0 0 0 0 0 0 0 .4 0"/><feOffset dx="8.0" dy="8.0" in="blurOut2" result="blurOut3"/><feBlend in="SourceGraphic" in2="blurOut3" mode="normal"/></filter></defs><g><!--MD5=[818ce9cd1eb68477d70117a0a20ac581]
class Instruction--><rect codeLine="4" fill="#FEFECE" filter="url(#fpdnm6c4rh97o)" height="229.8189" id="Instruction" style="stroke:#A80036;stroke-width:3.0;" width="238" x="14" y="14"/><ellipse cx="68.3" cy="46" fill="#ADD1B2" rx="22" ry="22" style="stroke:#A80036;stroke-width:2.0;"/><path d="M67.2375,59.8438 Q63.7375,59.8438 61.4563,58.375 Q59.2063,56.875 58.0813,54.1875 Q56.9875,51.4688 56.9875,47.875 Q56.9875,43.8125 58.3,40.9063 Q59.6125,38 62.175,36.4375 Q64.7375,34.875 68.4875,34.875 Q70.2688,34.875 71.6125,35.25 Q72.9563,35.5938 74.3313,36.2813 L72.7063,40.3125 Q71.4563,39.6875 70.3625,39.4375 Q69.3,39.1875 68.3313,39.1875 Q65.9875,39.1875 64.5813,40.25 Q63.175,41.3125 62.5813,43.2188 Q61.9875,45.125 61.9875,47.6563 Q61.9875,51.6875 63.425,53.625 Q64.8625,55.5313 68.05,55.5313 Q69.2375,55.5313 70.4875,55.2188 Q71.7375,54.9063 73.3938,54.1563 L73.3938,58.5938 Q71.925,59.2188 70.3313,59.5313 Q68.7688,59.8438 67.2375,59.8438 Z " fill="#000000"/><text fill="#000000" font-family="sans-serif" font-size="24" lengthAdjust="spacing" textLength="120" x="101.7" y="55.3121">Instruction</text><line style="stroke:#A80036;stroke-width:3.0;" x1="16" x2="250" y1="78" y2="78"/><ellipse cx="36" cy="100" fill="none" rx="6" ry="6" style="stroke:#038048;stroke-width:2.0;"/><text fill="#000000" font-family="sans-serif" font-size="22" lengthAdjust="spacing" textLength="110" x="54" y="109.5178">mnemonic</text><ellipse cx="36" cy="129.9638" fill="none" rx="6" ry="6" style="stroke:#038048;stroke-width:2.0;"/><text fill="#000000" font-family="sans-serif" font-size="22" lengthAdjust="spacing" textLength="186" x="54" y="139.4816">addressing_mode</text><ellipse cx="36" cy="159.9276" fill="none" rx="6" ry="6" style="stroke:#038048;stroke-width:2.0;"/><text fill="#000000" font-family="sans-serif" font-size="22" lengthAdjust="spacing" textLength="78" x="54" y="169.4454">opcode</text><ellipse cx="36" cy="189.8913" fill="none" rx="6" ry="6" style="stroke:#038048;stroke-width:2.0;"/><text fill="#000000" font-family="sans-serif" font-size="22" lengthAdjust="spacing" textLength="56" x="54" y="199.4092">bytes</text><ellipse cx="36" cy="219.8551" fill="none" rx="6" ry="6" style="stroke:#038048;stroke-width:2.0;"/><text fill="#000000" font-family="sans-serif" font-size="22" lengthAdjust="spacing" textLength="60" x="54" y="229.3729">cycles</text><!--MD5=[7957e791cef80159fa3c776ae368903b]
@startuml system_overview
scale 2
hide empty members

class Instruction {
+ mnemonic
+ addressing_mode
+ opcode
+ bytes
+ cycles
}
@enduml

PlantUML version 1.2021.00(Sun Jan 10 11:25:05 CET 2021)
(MIT source distribution)
Java Runtime: OpenJDK Runtime Environment
JVM: OpenJDK 64-Bit Server VM
Default Encoding: UTF-8
Language: en
Country: US
--></g></svg>